<?xml version="1.0" encoding="UTF-8"?>
<svg xmlns="http://www.w3.org/2000/svg" version="1.1" viewBox="0 0 150 150">
  <!-- Generator: Adobe Illustrator 28.6.0, SVG Export Plug-In . SVG Version: 1.2.0 Build 709)  -->
  <g>
    <g id="Layer_1">
      <g>
        <rect x="101.595" y="59.624" width=".278" height=".278"/>
        <rect x="78.759" y="93.599" width=".278" height=".278"/>
        <polygon points="99.089 53.776 99.367 53.776 99.367 53.497 99.646 53.497 99.646 52.94 99.367 52.94 99.367 53.219 99.089 53.219 99.089 53.497 98.81 53.497 98.81 54.054 99.089 54.054 99.089 53.776"/>
        <rect x="71.241" y="70.206" width=".278" height="1.114"/>
        <polygon points="79.038 61.852 78.759 61.852 78.759 61.295 78.481 61.295 78.481 61.573 77.924 61.573 77.924 61.852 77.646 61.852 77.646 62.13 77.089 62.13 77.089 62.409 76.532 62.409 76.532 62.687 77.646 62.687 77.646 62.409 77.924 62.409 77.924 62.13 78.481 62.13 78.481 62.409 78.203 62.409 78.203 62.687 77.646 62.687 77.646 62.966 77.924 62.966 77.924 63.244 78.481 63.244 78.481 63.523 78.759 63.523 78.759 62.966 79.038 62.966 79.038 62.687 79.316 62.687 79.316 62.13 79.038 62.13 79.038 61.852"/>
        <rect x="78.759" y="93.042" width=".278" height=".278"/>
        <rect x="77.924" y="71.042" width=".278" height=".278"/>
        <rect x="78.759" y="92.485" width=".278" height=".278"/>
        <rect x="101.038" y="58.51" width=".278" height=".557"/>
        <rect x="100.203" y="53.219" width=".278" height=".278"/>
        <rect x="83.494" y="37.902" width=".557" height=".278"/>
        <polygon points="64.835 58.788 65.392 58.788 65.392 58.232 64.557 58.232 64.557 58.51 64.835 58.51 64.835 58.788"/>
        <rect x="64.278" y="58.51" width=".278" height=".278"/>
        <polygon points="64 58.51 64.278 58.51 64.278 58.232 63.722 58.232 63.722 58.788 64 58.788 64 58.51"/>
        <rect x="71.797" y="63.523" width=".557" height=".278"/>
        <path d="M70.962,59.067v.278h-.278v.557h-.278v.557h-.278v.557h-.278v2.785h.278v.557h.278v.557h.278v.557h.278v.278h.278v.278h.278v-.278h.557v-.278h-.557v-.278h.278v-.278h.557v-.278h.557v-.557h.278v-.278h.278v-.278h.278v-.278h.278v-.278h.278v-.278h-.278v-.278h-.278v-.278h-.278v.278h-.278v-.278h-1.114v-.557h-.278v-.278h-.278v.278h-.278v.557h-.278v.835h.278v.278h.278v.278h.278v-.278h.278v-.278h.278v-.278h1.392v.278h-1.114v1.114h-1.114v-.278h-.278v-.278h-.278v-.278h-.278v-.557h-.278v-.557h.278v-.557h.278v-.278h.278v-.278h.557v-.278h.835v.278h-.278v.278h.278v.278h.278v.278h.278v.278h.278v-.278h.278v.278h.278v.278h.278v-.557h-.278v-.278h-.278v-.278h-.278v-.278h-.278v-.278h-.278v-.278h-.278v-.557h-.835v-.278h-.278v-.278h.557v-.278h-.557v-.278h.557v.278h.557v.557h.278v.278h.278v.278h.278v.278h.278v.557h.557v.557h.278v.278h.278v-1.114h.557v-1.114h.278v-.278h.278v-.278h.278v-.278h-.278v-.278h-.835v-.278h-.278v.278h-.557v.278h-.557v.557h.278v-.278h.278v.557h.278v-.278h.557v.557h-.278v-.278h-.278v.557h.557v.278h-.557v-.278h-.278v-.278h-.557v-.278h-.278v-1.114h.278v-.278h.835v-.278h.278v-.278h.278v.278h.278v.278h.835v.278h.278v.278h.278v.835h-.278v.278h-.835v.835h-.278v.278h-.278v.835h.278v-.557h.278v-.278h.557v-.557h.557v-.557h.278v-.278h.278v-.278h.278v-.278h.278v-.278h.557v.278h-.278v.278h.557v.278h-.557v.278h-.835v.278h-.278v.557h-.278v.557h-.278v-.278h-.278v.557h-.557v.278h-.278v.835h.278v-.557h.278v.557h-.278v.278h.278v.278h.278v.278h.557v.278h.278v.278h-.278v.278h.557v.278h.278v.278h1.114v.557h-.557v.278h.278v.278h-.557v-.278h-.278v-.557h-.557v-.557h-.557v-.278h-.278v-.278h-.278v-.557h-.278v-.278h-.278v-.278h-.278v.835h.278v.278h-.278v.278h.557v.557h.835v.278h.278v.835h-.278v.278h-.278v.278h-.835v.278h-.278v.557h-.278v-.557h-.278v-.278h-.557v-.278h-.557v-1.114h.278v-.278h.557v-.278h.278v-.278h.278v-.278h.278v-.278h-.278v-.835h.278v-.278h-.557v.278h-.278v.835h-.278v.278h-.278v.278h-.557v.557h-.278v.278h-.278v.278h-.278v.278h-.278v.278h-.557v.278h.278v.278h.278v.278h.278v.278h.835v.278h.557v.278h2.506v-.278h.835v-.278h.557v-.278h.557v-.557h.557v-.278h.278v-.557h.557v-.557h.278v-.835h.278v-.835h.278v-.557h-.278v-.278h.278v-.278h-.278v-.278h.278v-.278h-.278v-.835h-.278v-.835h-.278v-.278h-.278v-.557h-.278v-.278h-.278v-.278h-.278v-.278h-.278v-.278h-.557v-.278h-.557v-.278h-.557v-.278h-2.785v.278h-.835v.278h-.557v.278h-.278v.278h-.557v.278h-.278v.557h-.278ZM71.797,62.687h-.278v-.278h.278v.278ZM79.038,61.016v.557h.278v.557h.557v.278h-.278v.557h-.278v.278h-.278v.557h-.278v.278h-.835v-.557h-.278v-.278h-.278v-.278h-.835v-.278h-.278v-.278h.278v-.278h-.278v-.278h.278v.278h.557v-.278h.278v-.278h.278v-.278h.278v-.278h-.278v-.557h.278v.278h.557v.278h.557Z"/>
        <polygon points="80.987 42.637 81.266 42.637 81.266 42.08 80.987 42.08 80.987 42.358 80.709 42.358 80.709 42.915 80.987 42.915 80.987 42.637"/>
        <rect x="71.797" y="61.016" width=".278" height=".278"/>
        <polygon points="81.544 42.08 81.544 41.801 81.823 41.801 81.823 41.244 81.544 41.244 81.544 41.523 81.266 41.523 81.266 42.08 81.544 42.08"/>
        <path d="M80.43,57.953h-.278v-.278h-.278v-.278h-.278v-.278h-.278v-.278h-.557v-.278h-.278v-.278h-.557v-.278h-.557v-.278h-.835v-.278h-2.785v.278h-.835v.278h-.835v.278h-.557v.278h-.278v.278h-.278v.278h-.278v.278h.835v-.557h.557v-.278h.557v-.278h.557v-.278h1.392v.278h-1.114v.278h-.557v.278h-.557v.278h-.557v.278h-.278v.278h-.278v.278h.557v-.278h.278v-.278h.557v-.278h.557v-.278h1.114v-.278h1.671v.278h1.114v.278h.557v.278h.278v.278h.557v.278h.278v.278h.278v.278h.278v.278h.278v.557h.278v.278h.278v.557h.278v.835h.278v2.785h-.278v.835h-.278v.557h-.278v.557h-.278v.278h-.278v.278h-.278v.278h-.278v.278h.557v-.278h.278v-.278h.278v-.278h.278v-.278h.278v-.835h.557v.278h-.278v.557h-.278v.278h-.278v.278h-.278v.278h-.278v.278h.278v.278h.278v-.278h.278v-.557h.278v-.278h.278v-.557h.278v-.557h.278v-.835h.278v-.278h-.278v-.278h.278v-2.506h-.278v-.278h.278v-.278h-.278v-.557h-.278v-.557h-.278v-.557h-.278v-.557h-.278v-.278ZM75.975,56.282h-1.114v-.557h.557v.278h.557v.278ZM79.316,58.232v-.278h-.278v-.278h-.278v-.278h-.278v-.278h-.557v-.278h-.557v-.278h-.835v-.278h-.278v-.278h.557v.278h.557v.278h.835v.278h.278v.278h.557v.557h.557v.278h.278v.278h-.557ZM81.266,64.637h-.557v-.278h.278v-.557h.278v.835ZM81.266,63.244h-.278v-.278h.278v.278ZM81.544,62.687h-.557v-.557h.557v.557ZM81.544,61.573v.278h-.278v-.278h-.278v-.278h.278v.278h.278ZM80.709,59.067v.557h.278v.835h.278v.557h-.278v-.557h-.278v-.557h-.278v-.557h-.278v-.278h-.278v-.557h.278v.278h.278v.278h.278Z"/>
        <polygon points="101.873 59.067 101.873 59.624 102.152 59.624 102.152 59.902 102.709 59.902 102.709 59.624 102.43 59.624 102.43 59.345 102.152 59.345 102.152 58.788 101.873 58.788 101.873 58.51 101.595 58.51 101.595 59.067 101.873 59.067"/>
        <rect x="101.873" y="59.902" width=".278" height=".278"/>
        <polygon points="100.759 52.662 100.481 52.662 100.481 52.383 99.646 52.383 99.646 52.94 100.759 52.94 100.759 52.662"/>
        <rect x="100.759" y="53.219" width=".278" height=".557"/>
        <rect x="83.215" y="37.067" width=".278" height=".278"/>
        <rect x="104.101" y="61.852" width=".278" height=".278"/>
        <rect x="94.633" y="56.282" width=".835" height=".278"/>
        <polygon points="80.152 45.978 79.873 45.978 79.873 46.535 79.595 46.535 79.595 47.649 79.316 47.649 79.316 48.763 79.038 48.763 79.038 49.877 78.759 49.877 78.759 52.105 78.481 52.105 78.481 52.383 78.759 52.383 78.759 52.662 79.038 52.662 79.038 50.434 79.316 50.434 79.316 49.042 79.595 49.042 79.595 47.928 79.873 47.928 79.873 46.814 80.152 46.814 80.152 46.257 80.43 46.257 80.43 45.143 80.152 45.143 80.152 45.978"/>
        <rect x="75.975" y="59.345" width=".278" height=".278"/>
        <rect x="103.544" y="61.573" width=".557" height=".278"/>
        <polygon points="76.532 65.472 76.253 65.472 76.253 65.194 75.975 65.194 75.975 65.75 76.532 65.75 76.532 65.472"/>
        <path d="M79.316,67.421h-.278v-.278h-.278v-.278h-.278v.278h-.557v.278h-.557v.278h-.557v.278h-.835v.278h-.278v-.278h-.278v.278h-.278v-.278h-.278v.278h-.557v-.278h-1.114v-.278h-.557v-.278h-.557v-.278h-.278v-.278h-.278v-.278h-.278v-.278h-.278v-.278h-.278v-.278h-.278v-.557h-.278v-.557h-.278v-.278h-.278v-1.671h-.278v-.278h.278v-.278h-.278v-.278h.278v-1.114h.278v-.835h.278v-.278h.278v-.557h.278v-.278h.278v-.278h.278v-.557h-.557v.278h-.278v.557h-.278v.278h-.278v.557h-.278v.557h-.557v-.278h.278v-.557h.278v-.278h.278v-.557h.278v-.278h.278v-.278h.278v-.557h-.278v.278h-.278v.278h-.278v.278h-.278v.278h-.278v.557h-.278v.557h-.278v.835h-.278v.835h-.278v.278h.278v.278h-.278v.557h.278v-.278h.557v.557h-.278v-.278h-.278v.278h-.278v.557h.278v1.114h.278v.835h.278v.278h.278v.557h.278v.557h.278v.278h.278v.278h.278v.278h.278v.278h.278v.278h.557v-.278h.557v.278h-.557v.278h.278v.278h.557v.278h.835v.278h.835v.278h.278v-.278h.278v.278h1.671v-.278h.835v-.278h.835v-.278h.557v-.278h.278v-.278h.557v-.278h.278v-.278h.278v-.278h-.557v.278ZM68.734,61.573v-.557h.278v-.557h.278v.835h-.278v.278h-.278ZM68.734,63.523v-.278h.557v.278h-.557ZM69.291,63.801v.278h-.278v-.278h.278ZM71.519,67.421h-.557v-.278h-.278v-.278h-.278v-.278h-.278v-.557h-.278v-.278h-.278v-.557h-.278v-.278h-.278v-.557h.278v.278h.278v.557h.278v.557h.278v.278h.278v.557h.557v.278h.278v.278h.278v.278ZM73.19,68.535h-.557v-.278h-.278v-.278h.278v.278h.557v.278ZM73.747,68.814h-.278v-.557h.278v.557ZM74.304,68.814h-.278v-.278h.278v.278ZM75.418,69.092h-.557v-.557h.557v.557ZM78.759,67.7h-.278v.278h-.557v.278h-.278v.278h-1.114v.278h-.835v-.278h.835v-.278h.835v-.278h.557v-.278h.557v-.278h.278v.278Z"/>
        <path d="M74.861,64.637h-.278v.278h.557v.278h-1.392v.278h.557v.278h-.557v.278h.557v.278h.557v.278h.278v-.278h.835v-.557h-.278v-.557h-.278v-.557h-.278v-.278h-.278v.278ZM75.139,65.75h-.278v-.278h.278v.278Z"/>
        <polygon points="104.38 61.573 104.38 61.852 104.658 61.852 104.658 62.13 105.215 62.13 105.215 61.852 104.937 61.852 104.937 61.573 104.658 61.573 104.658 61.295 104.101 61.295 104.101 61.573 104.38 61.573"/>
        <rect x="103.266" y="61.295" width=".278" height=".278"/>
        <polygon points="96.025 56.004 96.582 56.004 96.582 55.725 96.861 55.725 96.861 55.447 96.304 55.447 96.304 55.725 95.747 55.725 95.747 56.004 95.468 56.004 95.468 56.282 96.025 56.282 96.025 56.004"/>
        <rect x="79.595" y="56.561" width=".278" height=".278"/>
        <polygon points="91.291 57.675 91.013 57.675 91.013 57.396 90.734 57.396 90.734 57.675 89.62 57.675 89.62 57.953 91.291 57.953 91.291 57.675"/>
        <rect x="80.43" y="57.396" width=".278" height=".278"/>
        <rect x="62.329" y="58.232" width="1.114" height=".278"/>
        <polygon points="80.152 57.118 80.152 57.396 80.43 57.396 80.43 56.839 79.873 56.839 79.873 57.118 80.152 57.118"/>
        <rect x="88.506" y="57.953" width="1.114" height=".278"/>
        <rect x="93.797" y="56.561" width=".835" height=".278"/>
        <rect x="77.924" y="59.345" width=".278" height=".278"/>
        <polygon points="92.127 57.396 93.241 57.396 93.241 57.118 93.797 57.118 93.797 56.839 92.962 56.839 92.962 57.118 91.848 57.118 91.848 57.396 91.291 57.396 91.291 57.675 92.127 57.675 92.127 57.396"/>
        <rect x="102.709" y="60.738" width=".278" height=".278"/>
        <rect x="102.987" y="61.016" width=".278" height=".278"/>
        <polygon points="97.418 55.168 97.696 55.168 97.696 54.89 97.139 54.89 97.139 55.168 96.861 55.168 96.861 55.447 97.418 55.447 97.418 55.168"/>
        <rect x="82.937" y="36.788" width=".278" height=".278"/>
        <rect x="74.861" y="61.852" width=".278" height=".278"/>
        <rect x="88.506" y="58.51" width=".278" height=".278"/>
        <rect x="82.937" y="39.852" width=".278" height=".278"/>
        <rect x="73.747" y="63.523" width=".278" height=".278"/>
        <rect x="97.696" y="54.611" width=".278" height=".278"/>
        <rect x="82.38" y="36.232" width=".278" height=".278"/>
        <rect x="81.266" y="35.118" width=".278" height=".278"/>
        <polygon points="98.532 54.333 98.81 54.333 98.81 54.054 98.253 54.054 98.253 54.333 97.975 54.333 97.975 54.611 98.532 54.611 98.532 54.333"/>
        <rect x="82.101" y="35.953" width=".278" height=".278"/>
        <rect x="82.658" y="40.13" width=".278" height=".278"/>
        <rect x="84.051" y="37.624" width=".557" height=".278"/>
        <rect x="76.253" y="59.067" width=".278" height=".278"/>
        <polygon points="102.987 60.459 102.987 60.738 103.266 60.738 103.266 61.016 103.544 61.016 103.544 61.295 104.101 61.295 104.101 61.016 103.823 61.016 103.823 60.738 103.544 60.738 103.544 60.459 103.266 60.459 103.266 60.181 102.987 60.181 102.987 59.902 102.709 59.902 102.709 60.459 102.987 60.459"/>
        <polygon points="84.608 58.788 84.608 58.232 84.329 58.232 84.329 58.51 84.051 58.51 84.051 58.788 84.608 58.788"/>
        <rect x="84.886" y="37.902" width=".278" height=".278"/>
        <polygon points="83.772 58.788 83.772 58.51 84.051 58.51 84.051 58.232 83.494 58.232 83.494 58.51 83.215 58.51 83.215 58.788 83.772 58.788"/>
        <rect x="83.772" y="37.345" width=".278" height=".278"/>
        <rect x="76.253" y="63.801" width=".278" height=".278"/>
        <rect x="74.304" y="62.409" width=".278" height=".278"/>
        <rect x="73.19" y="60.459" width=".278" height=".278"/>
        <polygon points="88.228 58.232 88.228 57.953 87.949 57.953 87.949 58.232 85.443 58.232 85.443 58.788 85.722 58.788 85.722 58.51 88.506 58.51 88.506 58.232 88.228 58.232"/>
        <rect x="80.152" y="37.067" width=".278" height=".278"/>
        <rect x="74.861" y="111.7" width=".557" height=".278"/>
        <rect x="77.646" y="109.194" width=".557" height=".278"/>
        <rect x="73.19" y="115.877" width=".278" height=".278"/>
        <polygon points="74.861 112.257 74.861 112.814 75.139 112.814 75.139 112.535 75.418 112.535 75.418 112.257 74.861 112.257"/>
        <rect x="74.582" y="111.978" width=".278" height=".278"/>
        <path d="M71.241,113.092h.278v.557h.278v.278h.278v.278h.278v-.557h.278v.557h-.278v.557h.278v.278h.278v.278h.278v.278h.278v.278h.278v.278h.278v.278h.557v.557h.557v-.278h.557v-.278h.278v-.278h.278v-.557h-.278v-.557h-.278v-.278h-.278v-.278h-.278v-.557h-.278v.557h-.278v.278h-.557v-.278h.278v-.278h-.278v-.278h.278v.278h.278v-.557h.278v-.278h.278v-.278h-.278v-.278h-.278v-.278h-.278v.278h-.278v.278h-.278v.278h-.557v.278h.278v.557h-.278v-.557h-.278v-.278h-.835v-.278h-.278v-.278h-.557v.278ZM75.139,116.434h-.278v-.278h.278v.278ZM73.19,114.485h.557v.557h.557v.278h1.392v.278h-.557v.278h-.278v-.278h-.835v-.278h-.278v-.278h-.557v-.557Z"/>
        <rect x="72.633" y="112.814" width=".278" height=".278"/>
        <rect x="71.797" y="85.801" width=".278" height=".278"/>
        <polygon points="81.266 105.016 81.266 105.573 81.544 105.573 81.544 105.852 81.823 105.852 81.823 106.409 82.101 106.409 82.101 106.687 82.38 106.687 82.38 107.244 82.937 107.244 82.937 107.801 83.494 107.801 83.494 107.523 83.215 107.523 83.215 106.966 82.937 106.966 82.937 106.687 82.658 106.687 82.658 106.409 82.38 106.409 82.38 106.13 82.101 106.13 82.101 105.573 81.823 105.573 81.823 105.295 81.544 105.295 81.544 104.738 81.266 104.738 81.266 104.459 80.987 104.459 80.987 105.016 81.266 105.016"/>
        <polygon points="83.772 108.08 83.772 108.358 84.051 108.358 84.051 108.637 84.608 108.637 84.608 108.915 85.165 108.915 85.165 108.637 84.886 108.637 84.886 108.358 84.329 108.358 84.329 108.08 84.051 108.08 84.051 107.801 83.494 107.801 83.494 108.08 83.772 108.08"/>
        <rect x="84.051" y="108.915" width=".557" height=".278"/>
        <rect x="78.481" y="92.763" width=".278" height=".278"/>
        <rect x="70.962" y="112.535" width=".278" height=".278"/>
        <polygon points="79.038 96.105 79.038 96.383 78.759 96.383 78.759 96.662 79.038 96.662 79.038 98.054 79.316 98.054 79.316 100.004 79.595 100.004 79.595 101.118 79.873 101.118 79.873 102.232 80.152 102.232 80.152 103.067 80.43 103.067 80.43 103.902 80.709 103.902 80.709 104.459 80.987 104.459 80.987 103.345 80.709 103.345 80.709 102.788 80.43 102.788 80.43 101.953 80.152 101.953 80.152 100.839 79.873 100.839 79.873 99.725 79.595 99.725 79.595 97.776 79.316 97.776 79.316 95.826 79.038 95.826 79.038 94.156 78.759 94.156 78.759 96.105 79.038 96.105"/>
        <rect x="74.861" y="108.637" width=".278" height=".278"/>
        <rect x="82.937" y="108.08" width=".278" height=".278"/>
        <rect x="77.367" y="99.725" width=".278" height=".278"/>
        <path d="M73.747,78.282v.557h-.278v.278h.278v.835h.278v.557h.278v.557h.278v.835h.278v.557h.278v-.557h.278v-.835h.278v-.278h.278v-.557h.278v-.557h.278v-.557h.278v-.278h-.557v-.557h-.278v-1.114h-.278v-.557h-.278v-.835h-.278v-.278h-.278v.278h-.278v.835h-.278v.835h-.278v.835h-.278ZM74.304,78.839v-.835h.278v-.557h.278v-.278h.278v.278h-.278v.557h-.278v.278h.278v.557h.557v-.557h-.278v-.557h.278v.557h.278v.557h.278v.557h-.278v.557h-.278v.557h-.278v.278h-.278v-.278h-.278v-.557h-.278v-.835h-.278v-.278h.278Z"/>
        <rect x="73.19" y="79.396" width=".278" height=".557"/>
        <rect x="69.848" y="107.244" width=".278" height=".278"/>
        <rect x="83.215" y="37.624" width=".278" height=".278"/>
        <rect x="74.861" y="74.94" width=".278" height=".278"/>
        <rect x="74.861" y="83.852" width=".278" height=".278"/>
        <rect x="75.139" y="75.219" width=".278" height=".278"/>
        <rect x="74.861" y="73.826" width=".278" height=".278"/>
        <polygon points="74.582 79.118 74.582 79.953 74.861 79.953 74.861 80.51 75.139 80.51 75.139 79.953 75.418 79.953 75.418 79.396 75.139 79.396 75.139 79.675 74.861 79.675 74.861 78.839 74.304 78.839 74.304 79.118 74.582 79.118"/>
        <rect x="74.861" y="73.269" width=".278" height=".278"/>
        <rect x="75.418" y="79.118" width=".278" height=".278"/>
        <rect x="71.797" y="82.181" width=".278" height=".557"/>
        <rect x="71.797" y="71.599" width=".278" height=".278"/>
        <rect x="71.797" y="76.89" width=".278" height=".835"/>
        <rect x="65.949" y="108.637" width=".278" height=".278"/>
        <rect x="71.797" y="74.94" width=".278" height=".278"/>
        <polygon points="65.392 108.915 65.392 109.194 65.114 109.194 65.114 109.472 65.671 109.472 65.671 109.194 65.949 109.194 65.949 108.915 65.392 108.915"/>
        <polygon points="68.456 105.573 68.734 105.573 68.734 105.016 69.013 105.016 69.013 104.738 69.291 104.738 69.291 103.902 69.013 103.902 69.013 104.181 68.734 104.181 68.734 104.738 68.456 104.738 68.456 105.295 68.177 105.295 68.177 105.852 68.456 105.852 68.456 105.573"/>
        <polygon points="67.899 106.409 68.177 106.409 68.177 105.852 67.899 105.852 67.899 106.13 67.62 106.13 67.62 106.687 67.899 106.687 67.899 106.409"/>
        <rect x="71.519" y="71.32" width=".278" height=".278"/>
        <polygon points="70.405 67.978 70.405 67.7 70.127 67.7 70.127 67.421 69.848 67.421 69.848 67.143 69.57 67.143 69.57 66.864 69.291 66.864 69.291 67.421 69.57 67.421 69.57 67.7 69.848 67.7 69.848 67.978 70.127 67.978 70.127 68.257 70.684 68.257 70.684 67.978 70.405 67.978"/>
        <rect x="82.658" y="107.801" width=".278" height=".278"/>
        <path d="M69.013,66.307v-.278h-.278v-.835h-.278v-.278h-.278v-1.114h-.278v-2.785h.278v-1.114h.278v-.557h.278v-.557h.278v-.557h-1.671v.278h.278v.278h.278v-.278h.557v.557h-1.392v-.278h-.278v.278h-.835v-.278h-.278v.278h-2.506v-.278h-.278v.278h-.278v-.278h-1.114v.278h-.278v-.278h.278v-.278h-.557v.278h-.278v-.278h-.278v.278h-.278v-.557h-1.392v.278h-.278v-.278h.278v-.278h-.557v.278h-.278v-.557h-1.114v.278h-.278v-.278h.278v-.278h-.557v.278h-.278v-.278h.278v-.278h-.835v.278h.278v.278h-.278v-.278h-.278v-.278h.278v-.278h-.557v.278h-.557v-.278h.557v-.278h-.835v.278h-.278v-.278h.278v-.278h-.278v-.278h-.557v-.278h-.557v-.278h-.278v-.278h-.557v-.278h-.557v-.557h-.557v-.278h-.557v-.278h-.278v-.278h-.278v.278h-.278v-.557h-.278v.278h-.278v-.835h.278v.278h.278v-.278h.278v.278h.557v.278h.278v.278h.557v-.278h-.278v-.278h-.278v-.557h-2.228v.835h.278v.835h.278v-.278h.278v.278h.278v.278h.557v.557h-.278v-.278h-.278v.278h-.278v-.278h.278v-.278h-.278v-.278h-.278v1.392h.278v.835h-.278v1.671h.278v-1.114h.278v-1.392h.278v1.671h-.278v.835h-.278v.835h.278v-.557h.278v-.557h.278v-.835h.557v.278h-.278v.557h-.278v.835h-.278v.278h-.278v.557h-.278v.557h-.278v.278h-.278v.278h-.278v-.557h-.278v.557h-.557v.278h-.278v.278h.557v.278h-.557v.278h-.278v.278h-.278v.278h-.557v.278h.278v.278h.557v.278h.278v.278h.278v.278h.278v.278h.557v.557h-.278v-.278h-.278v.278h-.278v-.278h.278v-.278h-.278v-.278h-.278v.278h-.278v-.278h.278v-.278h-.278v-.278h-.557v.278h.278v.278h-.278v-.278h-.278v-.278h.278v-.278h-.278v-.278h-.278v-.278h-.557v.278h-.278v-.278h-.557v.278h.278v.278h.278v.278h.278v.278h.557v.278h.278v.278h.278v.278h.278v.278h.557v.278h.278v.278h.278v.557h.278v.278h.278v.557h.278v.557h.278v1.114h.278v.835h-.278v.557h.278v.278h-.278v1.114h-.278v.557h.278v-.278h.278v.278h-.278v.278h.557v.278h-.557v-.278h-.557v.835h.557v-.278h.278v.278h1.392v-.557h.278v-.557h.557v-.278h.278v-.278h.278v-.278h.557v-.557h.557v-.278h.557v-.278h.278v-.278h.557v-.278h.557v-.278h.835v-.278h.278v-.278h.835v-.278h.835v-.278h1.114v-.278h1.114v-.278h2.228v-.278h6.962v.278h.278v-.557h-.278ZM45.62,62.966h-.278v-.278h.278v.278ZM67.342,59.624h.278v.278h-.278v-.278ZM66.785,59.624h.278v.278h-.278v-.278ZM66.228,59.624h.278v.278h-.278v-.278ZM65.671,59.624h.278v.278h-.278v-.278ZM65.114,59.624h.278v.278h-.278v-.278ZM64.278,59.345h.278v.278h.278v.278h-.557v-.557ZM63.722,59.624h.278v.278h-.278v-.278ZM63.165,59.624h.278v.278h-.278v-.278ZM62.608,59.345h.278v.278h-.278v-.278ZM61.772,59.345h.278v.278h-.278v-.278ZM60.937,59.345h.557v.278h-.557v-.278ZM60.101,59.067h.278v.278h-.278v-.278ZM59.544,58.51h.278v.278h-.278v-.278ZM59.544,59.067h.278v.278h-.278v-.278ZM58.987,58.51h.278v.278h-.278v-.278ZM58.987,59.067h.278v.278h-.278v-.278ZM58.43,59.067h.278v.278h-.278v-.278ZM57.873,58.788h.278v.278h-.278v-.278ZM57.038,57.953h.557v.278h-.557v-.278ZM57.595,58.51v.278h-.278v-.278h.278ZM56.759,58.51h.278v.278h-.278v-.278ZM56.203,58.232h.278v.278h-.278v-.278ZM55.367,57.953h.557v.278h-.557v-.278ZM54.81,57.675h.278v.278h-.278v-.278ZM53.696,57.118h.278v.278h.557v.278h-.557v-.278h-.278v-.278ZM51.468,55.447h.278v.278h.278v.278h.278v.278h.278v-.278h.278v.278h-.278v.278h-.278v-.278h-.278v-.278h-.278v-.278h-.278v-.278ZM53.139,56.561v.278h-.278v-.278h.278ZM50.911,55.168h.278v.278h-.278v-.278ZM50.076,54.333h.278v.278h-.278v-.278ZM49.797,55.168h.278v.557h-.278v-.557ZM50.076,56.282v.278h-.278v-.557h.557v.278h-.278ZM47.848,62.687v-.835h.278v-.278h.278v-.278h.278v-.278h.278v-.278h.278v-.278h.278v.278h-.278v.278h-.278v.278h-.278v.557h-.278v.278h-.278v.557h.557v.557h.278v.278h.278v.557h-.278v-.557h-.278v-.278h-.278v-.278h-.278v-.278h-.278ZM49.519,66.029h-.278v-.278h-.278v-.278h.278v.278h.278v.278ZM49.797,66.307v.557h-.278v-.557h.278ZM49.241,68.257v-.557h-.278v-.557h.278v.557h.278v.557h-.278ZM49.519,68.535v.835h-.278v-.835h.278ZM48.405,64.915v-.557h.278v.557h.278v.278h-.278v-.278h-.278ZM48.684,66.586v-.557h-.278v-.557h-.278v-.278h-.278v-.557h.278v.557h.278v.278h.278v.557h.278v.278h.278v.278h-.557ZM48.962,70.485v-.557h.278v-.278h.278v.278h-.278v.557h-.278ZM49.241,70.763h.278v.278h-.278v-.278ZM49.797,71.599h-.278v-.278h.278v.278ZM49.797,70.485h-.278v-.278h.278v.278ZM50.076,69.928h-.278v-.835h.278v.835ZM50.076,68.814h-.278v-.557h.278v.557ZM50.076,67.978h-.278v-.278h.278v.278ZM50.076,67.421h-.278v-.278h.278v.278ZM50.633,71.042h-.278v-.278h.278v.278ZM52.304,69.649h-.278v.278h-.278v.278h-.557v.278h-.278v-.278h.278v-.278h.557v-.278h.278v-.278h.278v.278ZM50.911,69.649v-.278h.278v.278h-.278ZM51.468,69.092v-.278h.557v.278h-.557ZM53.696,68.814h-.278v.278h-.557v.278h-.278v-.557h.835v-.278h.278v.278ZM53.696,67.978h-.557v.278h-.557v.278h-.278v-.278h.278v-.278h.557v-.278h.557v.278ZM56.203,67.7h-.557v.278h-.557v.278h-.557v.278h-.557v-.278h.278v-.278h.835v-.278h.557v-.278h.557v.278ZM54.253,67.7v-.557h.557v.278h-.278v.278h-.278ZM55.924,66.864v.278h-.278v-.278h-.278v.278h-.278v-.278h.278v-.278h.278v.278h.278ZM55.924,66.586v-.278h.835v-.278h.835v-.278h.835v.278h-.835v.278h-.835v.278h-.835ZM60.38,66.586h-1.392v.278h-1.114v.278h-.835v.278h-.557v-.278h.557v-.278h.835v-.278h1.114v-.278h1.114v-.278h.278v.557ZM58.709,66.029v-.278h.557v-.278h.278v.278h-.278v.278h-.557ZM60.38,65.75h-.557v-.278h.557v.278ZM59.823,64.637v.278h-.278v-.278h.278v-.278h-.557v.557h-1.114v.278h-1.114v.278h-.835v.278h-.278v-.278h-.278v.278h-.557v.278h-.278v.278h-.835v.278h-.278v.278h-.557v.278h-.278v.278h-.557v.278h-.278v.278h-.278v.278h-.278v.278h-.278v-.278h.278v-.557h.557v-.278h.278v-.278h.278v-.278h.278v-.278h.557v-.278h-.835v.278h-.278v-.278h-.557v.278h-.835v-.278h-.557v-.835h-.278v-.557h-.278v-1.114h.278v-.278h.278v.557h.278v.278h-.557v.278h.278v.278h.278v.278h-.278v.278h.278v.278h.278v.278h.557v.278h.278v-.278h.557v-.278h-.278v-.278h-.557v-.557h.278v.278h.278v.278h.278v.278h.557v.278h.835v-.278h.278v-.278h.278v-.557h-.835v-.278h-.278v.278h-.278v-.278h-.557v-.278h-.557v-.278h-.278v-.557h-.557v-.557h-.557v-.278h-.557v-.278h-.278v.278h-.278v-.278h-.557v-.278h1.392v-.278h.557v-.278h.278v-.278h.278v-.278h.278v-.278h.278v-.278h.278v-.278h.557v-.278h1.114v-.278h.278v.278h.278v-.557h-.278v-.278h-.278v-.278h-.835v.278h-.278v-.278h-.557v-.278h-1.114v.278h-.278v.557h.278v.278h-.278v-.278h-.278v.278h-.278v.278h.557v.278h-.557v.278h.278v.278h.278v-.278h.278v.278h-.278v.278h-.278v.278h-.278v-.557h-.278v-1.114h.278v-.557h.278v-.278h.278v-.278h.278v-.278h1.392v.278h1.392v-.278h-.557v-.278h-.557v-.278h-.278v-.278h-.278v-.278h-.278v-.278h-.557v-.278h-.278v-.278h.278v.278h.557v.278h.278v.278h.278v.278h.835v.278h.278v.278h.278v.278h.557v.278h.557v.278h.557v.278h1.114v.278h1.114v.278h.557v.278h1.671v.278h1.392v.278h.278v-.278h.278v.278h.278v-.278h.835v.278h.278v-.278h.278v.278h1.114v-.278h.278v.278h.835v-.278h.278v.278h1.949v.278h-.278v.278h-.557v-.278h-.557v.278h-.557v-.278h-.278v.278h-.278v-.278h-1.114v.278h-.557v.557h-.278v.278h.278v.557h.278v-.278h.278v-.835h.557v.835h.278v-.278h.278v.278h.557v-.278h.278v.278h-.278v.278h-.557v-.278h-.278v.278h-.278v-.278h-.557v.278h-.278v.278h-.278v.278h-.278v.278h.278v.557h.557v.278h.835v-.278h.278v.278h.557v-.835h-.278v-.278h-.557v-.278h.557v.278h.278v-.278h.278v-.278h.278v-.278h.835v-.278h.278v.278h-.278v.278h.278v.278h-1.114v.278h-.557v.278h.557v.278h-.278v.557h.278v-.278h1.114v.278h.278v.557h-.278v-.278h-.557v.278h-.278v-.278h-.835v.278h-.278v-.278h-.557v.278h-.278v-.278h-.557v.278h-.278v-.278h-.557v.278h-.278v-.278h-.278v.278h-.278v-.278h-.557v.278h-.557v-.278h-.557v.278h-.278v.278h-.278v-.278h-.557ZM50.911,64.915v-.278h.278v.278h-.278ZM50.911,60.181v-.278h.278v-.278h.278v.278h-.278v.278h-.278ZM52.025,59.067v.557h-.278v-.557h-.278v-.278h.278v.278h.278ZM66.506,61.295v.278h-.835v-.278h.835ZM64.835,63.244v.557h-.278v-.278h-.278v-.835h.557v.278h-.278v.278h.278ZM67.899,65.194v.278h-.278v-.278h.278ZM67.342,65.194v.278h-1.114v-.278h1.114ZM65.949,64.915v.557h-.278v-.557h.278ZM64.835,65.194v-.278h.278v.278h.278v.278h-.278v-.278h-.278ZM64,65.194v-.278h.278v.278h.278v.278h-.278v-.278h-.278ZM63.165,65.194v.278h-.557v-.278h.557v-.278h.278v.278h.278v.278h-.278v-.278h-.278ZM62.329,65.194v.278h-.278v-.278h.278ZM61.772,65.194v.278h-.278v-.278h.278ZM61.215,65.472v.278h-.557v-.278h.557ZM68.456,66.307h-1.392v-.278h-.278v.278h-.278v-.278h-.278v.278h-.278v-.278h-.557v.278h-.278v-.278h-.557v.278h-.278v-.278h-.557v.278h-.835v-.278h-.278v.278h-1.392v.278h-.278v-.278h-.278v-.278h1.392v-.278h.278v.278h.278v-.278h.557v.278h.278v-.278h3.063v.278h.278v-.278h.278v.278h1.392v.278Z"/>
        <rect x="71.519" y="103.902" width=".278" height=".278"/>
        <rect x="71.797" y="78.839" width=".278" height=".557"/>
        <rect x="71.797" y="78.004" width=".278" height=".557"/>
        <rect x="71.797" y="84.13" width=".278" height=".278"/>
        <polygon points="82.937 110.864 83.215 110.864 83.215 110.586 82.658 110.586 82.658 110.864 82.38 110.864 82.38 111.143 82.937 111.143 82.937 110.864"/>
        <rect x="81.823" y="106.966" width=".278" height=".278"/>
        <polygon points="82.101 112.257 81.823 112.257 81.823 112.535 81.544 112.535 81.544 112.814 81.266 112.814 81.266 113.092 80.987 113.092 80.987 113.371 80.709 113.371 80.709 113.928 80.987 113.928 80.987 113.649 81.544 113.649 81.544 113.092 81.823 113.092 81.823 112.814 82.101 112.814 82.101 112.535 82.38 112.535 82.38 111.978 82.101 111.978 82.101 112.257"/>
        <polygon points="80.43 114.206 80.152 114.206 80.152 114.763 79.873 114.763 79.873 115.042 79.595 115.042 79.595 115.32 79.316 115.32 79.316 115.877 79.595 115.877 79.595 115.599 79.873 115.599 79.873 115.32 80.152 115.32 80.152 115.042 80.43 115.042 80.43 114.485 80.709 114.485 80.709 113.928 80.43 113.928 80.43 114.206"/>
        <rect x="82.38" y="107.523" width=".278" height=".278"/>
        <rect x="82.101" y="107.244" width=".278" height=".278"/>
        <polygon points="67.342 107.523 67.342 107.801 67.063 107.801 67.063 108.08 67.62 108.08 67.62 107.523 67.342 107.523"/>
        <rect x="67.62" y="107.244" width=".278" height=".278"/>
        <rect x="66.228" y="108.358" width=".557" height=".278"/>
        <rect x="66.785" y="108.08" width=".278" height=".278"/>
        <rect x="69.291" y="112.814" width=".278" height=".278"/>
        <polygon points="67.342 107.244 67.62 107.244 67.62 106.687 67.063 106.687 67.063 107.244 66.785 107.244 66.785 107.523 67.342 107.523 67.342 107.244"/>
        <rect x="69.013" y="112.535" width=".278" height=".278"/>
        <polygon points="95.468 63.523 95.468 63.801 95.19 63.801 95.19 64.08 95.468 64.08 95.468 64.358 95.747 64.358 95.747 63.801 96.025 63.801 96.025 64.08 96.582 64.08 96.582 64.358 96.861 64.358 96.861 64.08 97.139 64.08 97.139 64.358 97.696 64.358 97.696 63.801 97.418 63.801 97.418 63.523 97.139 63.523 97.139 62.966 96.861 62.966 96.861 62.687 96.304 62.687 96.304 62.966 96.025 62.966 96.025 63.244 95.747 63.244 95.747 63.523 95.468 63.523"/>
        <rect x="88.228" y="60.459" width=".278" height=".278"/>
        <rect x="95.468" y="62.966" width=".278" height=".278"/>
        <polygon points="95.19 64.915 95.19 64.358 94.911 64.358 94.911 63.523 94.633 63.523 94.633 62.966 94.354 62.966 94.354 62.687 94.076 62.687 94.076 63.244 93.797 63.244 93.797 63.801 93.519 63.801 93.519 64.08 93.797 64.08 93.797 64.358 94.076 64.358 94.076 64.637 94.354 64.637 94.354 64.915 94.911 64.915 94.911 65.194 95.19 65.194 95.19 65.472 95.468 65.472 95.468 64.915 95.19 64.915"/>
        <polygon points="93.797 60.181 93.797 60.738 93.241 60.738 93.241 61.016 92.962 61.016 92.962 61.295 92.684 61.295 92.684 61.573 92.127 61.573 92.127 62.13 91.291 62.13 91.291 62.409 91.57 62.409 91.57 62.687 92.127 62.687 92.127 62.966 92.405 62.966 92.405 63.244 92.962 63.244 92.962 63.523 93.241 63.523 93.241 63.801 93.519 63.801 93.519 63.244 93.797 63.244 93.797 62.409 93.519 62.409 93.519 62.687 93.241 62.687 93.241 62.409 92.962 62.409 92.962 62.13 94.076 62.13 94.076 61.852 93.797 61.852 93.797 61.573 93.519 61.573 93.519 61.295 93.797 61.295 93.797 61.573 94.076 61.573 94.076 61.852 94.633 61.852 94.633 61.016 94.911 61.016 94.911 60.459 95.19 60.459 95.19 59.902 95.468 59.902 95.468 59.345 95.747 59.345 95.747 59.067 95.19 59.067 95.19 59.345 94.911 59.345 94.911 59.624 94.633 59.624 94.633 59.902 94.076 59.902 94.076 60.181 93.797 60.181"/>
        <path d="M98.81,62.966v-.278h.557v-.278h.278v-.278h-.557v-.278h-.278v-.278h-.278v-.278h-.278v.278h-.835v.278h-.278v1.114h.278v.278h.835v.278h.278v-.557h.278ZM97.975,62.687h-.278v-.278h.278v.278ZM98.253,62.13h-.278v-.278h.278v.278Z"/>
        <rect x="60.38" y="64.358" width=".278" height=".278"/>
        <path d="M97.696,60.459h-.278v.278h-.278v-.557h-1.114v.278h-.278v-.278h-.278v.557h-.278v.278h.278v.557h.278v-.278h.278v.278h.278v.557h.557v-.278h.278v-.557h.278v-.278h.557v.278h.278v-.557h-.557v-.278ZM96.582,60.738h-.278v-.278h.278v.278Z"/>
        <polygon points="94.354 62.13 94.354 62.687 94.911 62.687 94.911 62.966 95.468 62.966 95.468 62.687 96.025 62.687 96.025 62.13 95.468 62.13 95.468 61.852 95.19 61.852 95.19 61.573 94.911 61.573 94.911 61.852 94.633 61.852 94.633 62.13 94.354 62.13"/>
        <polygon points="83.494 66.029 83.494 66.307 83.215 66.307 83.215 66.586 83.772 66.586 83.772 66.307 84.051 66.307 84.051 66.586 84.608 66.586 84.608 66.307 84.886 66.307 84.886 66.029 83.494 66.029"/>
        <rect x="95.468" y="65.472" width=".278" height=".278"/>
        <rect x="95.19" y="63.244" width=".278" height=".278"/>
        <rect x="82.658" y="60.459" width=".278" height=".278"/>
        <rect x="96.025" y="64.358" width=".557" height=".278"/>
        <rect x="97.975" y="63.523" width=".278" height=".278"/>
        <rect x="95.747" y="61.573" width=".278" height=".278"/>
        <rect x="66.228" y="58.232" width=".278" height=".557"/>
        <rect x="65.671" y="58.232" width=".278" height=".278"/>
        <rect x="78.481" y="70.763" width=".278" height=".557"/>
        <rect x="72.633" y="100.004" width=".278" height=".278"/>
        <rect x="84.886" y="58.232" width=".278" height=".278"/>
        <rect x="66.785" y="58.232" width=".278" height=".278"/>
        <rect x="84.329" y="60.459" width=".278" height=".278"/>
        <rect x="86.278" y="63.801" width=".278" height=".278"/>
        <rect x="88.506" y="60.738" width=".278" height=".278"/>
        <rect x="87.671" y="60.459" width=".278" height=".278"/>
        <rect x="83.772" y="63.801" width=".278" height=".278"/>
        <rect x="99.646" y="64.08" width=".278" height=".278"/>
        <polygon points="88.785 62.966 88.785 62.409 88.228 62.409 88.228 62.687 88.506 62.687 88.506 62.966 88.228 62.966 88.228 62.687 87.392 62.687 87.392 62.966 87.114 62.966 87.114 62.687 87.392 62.687 87.392 62.409 87.114 62.409 87.114 61.852 87.392 61.852 87.392 62.13 87.671 62.13 87.671 62.409 88.228 62.409 88.228 62.13 87.949 62.13 87.949 61.852 88.228 61.852 88.228 62.13 88.785 62.13 88.785 62.409 89.063 62.409 89.063 62.13 89.342 62.13 89.342 62.409 89.063 62.409 89.063 62.966 89.62 62.966 89.62 62.687 89.899 62.687 89.899 62.409 90.177 62.409 90.177 62.13 89.62 62.13 89.62 61.852 89.342 61.852 89.342 61.573 89.063 61.573 89.063 61.295 88.506 61.295 88.506 61.016 88.228 61.016 88.228 60.738 87.949 60.738 87.949 61.016 87.671 61.016 87.671 60.738 87.114 60.738 87.114 61.016 86.835 61.016 86.835 60.738 86.557 60.738 86.557 61.573 86.835 61.573 86.835 62.13 86.557 62.13 86.557 62.687 86.835 62.687 86.835 63.523 86.557 63.523 86.557 63.801 86.835 63.801 86.835 64.08 87.114 64.08 87.114 63.801 88.506 63.801 88.506 63.523 89.063 63.523 89.063 62.966 88.785 62.966"/>
        <path d="M105.215,62.13v.278h-.557v-.278h-.278v.557h-.835v.278h-.278v.278h-.278v.278h.278v.278h-.278v-.278h-.278v.278h-.278v.278h-.557v-.278h.557v-.278h.278v-.278h.278v-.278h.278v-.278h.278v-.278h.557v-.278h-.557v-.278h-.278v-.278h-.278v-.278h-.278v-.278h-.278v-.278h.278v-.278h-.278v-.278h-.278v.278h-.278v-.278h-.278v-.278h-.278v-.278h.278v-.557h-.278v.278h-.278v-.278h-.278v-.557h-.278v-.278h.278v.278h.278v-.278h.278v.278h.278v-.835h-.278v-.835h-.278v-1.949h.278v-.835h.278v-.835h.278v-.557h.278v-.278h-1.392v.278h.557v1.114h-.278v.278h-.278v-.278h-.557v-.278h-.557v.557h-.278v.278h-.278v.278h-.278v.278h-.557v.278h-.278v.278h-.557v.278h-.278v.278h-.557v.278h-.278v.278h.557v.278h-.557v-.278h-.557v.278h.278v.278h-.278v-.278h-1.114v.278h-.557v.278h-.557v.278h-1.114v.278h.278v.278h-.278v.278h-.278v-.278h.278v-.278h-.835v.278h.278v.278h-.278v-.278h-1.671v.557h-.278v.278h-.278v-.278h.278v-.278h-.557v.278h-.278v.278h-.278v-.278h-.835v.278h-.557v-.278h-.278v.278h-.278v-.278h-.557v.278h-3.62v-.278h-.278v.278h-.278v-.278h-.278v-.278h1.114v.278h.278v-.278h.278v-.278h-1.949v-.278h-.278v-.278h-.278v.557h.278v.278h.278v.557h.278v.557h.278v.557h.278v1.392h.278v.278h-.278v.278h.278v.278h-.278v.278h.278v.278h-.278v.278h.278v.278h-.278v.835h-.278v.835h-.278v.557h-.278v.557h-.278v.278h-.278v.278h-.278v.557h.278v-.278h.278v-.278h.278v-.278h.835v-.278h.278v.278h.557v-.278h-.278v-.278h-.557v-.278h.557v.278h.278v.278h.278v-.557h3.62v.278h.278v-.278h.557v.278h.278v-.278h.278v.278h1.671v.278h1.392v.278h1.114v.278h.835v.278h.557v.278h.557v.278h.835v.278h.835v.278h.278v.278h.557v.278h.557v.278h.278v.278h.557v.278h.278v.278h.278v.278h.278v.278h-.278v-.278h-.278v-.278h-.557v-.278h-.278v-.278h-.278v-.278h-.557v-.278h-.557v-.278h-.278v-.278h-.835v-.278h-.835v-.278h-.557v-.278h-.557v-.278h-1.114v-.278h-.835v-.278h-1.392v-.278h-2.228v-.278h-.557v.278h-.557v-.278h-.278v.278h-.278v-.278h-.835v.278h-.278v.278h3.62v.278h.278v-.278h.278v.278h1.392v.278h1.114v.278h.835v.278h.835v.278h.835v.278h.557v.278h.557v.278h.835v.278h.278v.278h.557v.278h.278v.278h.557v.278h.278v.278h.278v.278h.278v.278h.557v.557h.278v.278h.278v.278h.557v.278h.557v-.278h.278v.278h.278v-.278h.278v.278h.557v-.278h-.278v-.835h-.278v-.557h-.278v-.835h-.278v-1.949h.278v-1.114h.278v-.557h.278v-.557h.278v-.557h.557v-.557h.278v-.278h.557v-.557h.557v-.278h.278v-.278h.278v-.278h.557v-.278h.278v-.278h.278v-.278h-.557ZM101.038,61.016h.278v.278h.278v.278h.278v.278h.278v.278h.278v.278h-.278v.278h-.278v.278h-.278v.557h-.557v-.278h.278v-.278h.278v-.278h.278v-.557h-.278v-.557h-.557v-.557ZM100.203,54.054h.278v.557h-.278v-.557ZM99.924,54.89h.557v.278h.278v.278h-.278v-.278h-.278v.557h-.278v-.835ZM100.759,55.725v.557h-.278v-.557h.278ZM99.924,57.396h.278v-.278h.278v-.278h-.278v-.278h-.278v-.557h.278v.557h.557v.557h.278v.557h-.278v-.557h-.278v.835h-.278v-.278h-.278v-.278ZM99.089,54.89h.278v.278h-.278v-.278ZM98.253,55.447h.557v.278h-.557v-.278ZM97.139,56.282h.278v-.278h.557v.278h-.557v.278h-.278v-.278ZM96.304,57.118h.278v.278h-.278v-.278ZM94.354,57.396h.278v.278h-.278v-.278ZM94.354,57.953h.557v-.278h.557v-.278h-.557v-.278h.557v.278h.278v.278h-.278v.278h-.557v.278h-.557v-.278ZM93.797,57.675h.278v.278h-.278v-.278ZM93.797,58.232h.278v.278h-.278v-.278ZM92.962,57.953h.278v.278h-.278v-.278ZM92.962,58.51h.278v.278h-.278v-.278ZM92.127,58.788h.557v.278h-.557v-.278ZM91.57,58.788h.278v.278h-.278v-.278ZM90.734,58.51h.278v.278h-.278v-.278ZM91.291,59.067v.278h-.278v-.278h.278ZM90.177,58.51h.278v.278h-.278v-.278ZM90.177,59.345h.278v-.278h.278v.278h-.278v.278h-.278v-.278ZM89.62,59.345h.278v.278h-.278v-.278ZM89.063,59.345h.278v.278h-.278v-.278ZM88.228,59.345h.557v.278h-.557v-.278ZM87.392,59.345h.278v.278h.278v.278h-.278v-.278h-.278v-.278ZM86.835,59.624h.278v.278h-.278v-.278ZM86,59.345h.278v.557h-.278v-.557ZM85.443,59.624h.278v.278h-.278v-.278ZM84.608,59.624h.278v.278h-.278v-.278ZM83.772,59.345h.278v.278h.278v.278h-.557v-.557ZM82.937,59.624h.278v.278h-.278v-.278ZM83.215,65.472h-.278v-.278h.278v.278ZM83.772,65.472h-.278v-.557h.278v.557ZM84.608,65.472h-.278v-.278h-.278v-.278h.278v.278h.278v.278ZM85.443,65.472h-.557v-.278h.557v.278ZM86,65.472h-.278v-.557h.278v.557ZM86.835,65.194h-.278v.278h-.278v-.278h.278v-.278h.278v.278ZM87.671,65.472h-.557v-.278h.557v.278ZM88.228,65.472h-.278v-.278h.278v.278ZM88.785,65.472h-.278v-.278h.278v.278ZM89.342,65.472h-.278v-.278h.278v.278ZM92.127,66.029h-.835v-.278h-1.671v-.278h1.671v.278h.835v.278ZM94.076,66.586h-.557v-.278h-1.114v-.278h1.114v.278h.557v.278ZM94.076,65.75h-.278v-.278h.278v.278ZM94.633,67.143h-.278v-.278h.278v-.278h-.278v-.278h.278v.278h.278v.278h-.278v.278ZM95.468,67.421h-.557v-.278h.278v-.278h.278v.557ZM96.025,67.7h-.278v-.557h.278v.557ZM97.696,68.535h-.278v-.278h-.278v-.278h-.278v.278h-.278v-.278h-.278v-.278h.278v.278h.278v-.278h.278v.278h.278v.278h.278v.278ZM98.253,68.814h-.278v-.278h.278v.278ZM98.81,69.371h-.278v-.278h.278v.278ZM99.089,68.535h-.278v-.278h-.557v-.557h-.557v-.278h-.278v-.278h-.557v-.278h-.557v-.278h-.278v-.278h-.557v-.278h-.278v-.278h-.557v-.278h-.278v-.278h-.278v-.278h-.557v-.278h-.278v-.278h-.278v-.278h-.278v-.557h-.557v-.278h-.557v-.278h-.278v-.278h-1.114v.278h-.278v.278h-.557v.278h-.278v.278h.278v.557h.278v-.557h.278v.557h.278v-.278h.835v.278h.278v-.278h.278v.557h.278v-.278h.278v.557h.278v-.557h.278v.557h.557v.278h.278v.278h-.835v-.278h-.557v-.278h-1.114v-.278h-.278v-.278h-.278v.557h-.278v-.278h-1.392v-.278h-.835v.278h-.278v-.278h-.557v.278h-.278v-.278h-.835v.278h-.278v-.278h-.278v.278h-.278v-.278h-.835v.278h-.278v-.278h-.835v.278h-.557v-.278h-.278v-.278h.278v-.278h.278v.557h.278v-.557h.557v-.278h-.278v-.278h.278v.278h.557v.557h.278v-.278h.278v.278h.835v-.278h.557v-.557h.278v-.557h-.557v.278h-.278v.557h-.835v-.278h.557v-.278h-.278v-.278h.835v-.557h.278v-.278h.278v-.278h-.278v-.557h-.557v-.278h-1.114v.278h-.278v-.278h-.557v.278h.278v.278h.278v.835h-.278v.278h-.278v.278h.835v-.557h.557v-.278h.278v-.278h-.278v-.278h.557v.835h-.557v.278h-.278v.278h-.278v.278h-.278v.278h-.278v-.278h-.278v-.278h-1.114v-.557h1.114v-.278h.278v-.557h-.278v.278h-.278v-.278h.278v-.278h-.278v-.278h-.278v.278h-.557v-.278h-.278v-.278h.278v-.278h.278v.278h.278v-.278h.278v.278h.835v-.278h.557v.278h.557v-.278h.278v.278h.557v-.278h.278v.278h1.114v-.278h1.114v.557h.278v-.557h.835v-.278h.557v.278h.278v-.278h1.114v-.278h.557v.278h-.278v.557h-.557v-.278h-.278v.278h-.278v-.278h-.278v.557h-.278v-.557h-.278v.835h-.278v-.557h-.278v.278h-.557v.557h.557v.278h.278v.278h.278v.278h.835v-.278h.278v-.278h.557v-.278h.278v-.278h.557v-.278h.278v-.278h.278v-.278h.278v-.278h.557v-.278h.278v-.278h-.557v.278h-.557v.278h-.557v-.557h1.114v-.278h1.114v-.278h.278v-.278h.835v-.278h.278v-.278h.557v-.278h.557v-.278h.278v-.278h.278v-.278h.557v-.278h.278v-.278h.278v.278h-.278v.278h-.278v.278h-.557v.278h-.278v.278h-.278v.278h-.278v.278h-.557v.278h1.114v-.278h1.392v.278h.557v.278h.278v.557h.278v1.671h-.278v.278h-.278v-.278h-.278v-.278h.278v-.278h.278v-.557h-.557v-.278h.278v-.557h-.278v-.278h-.557v-.278h-.557v.278h-.557v.278h.557v.278h-.557v-.278h-.557v-.278h-.557v-.278h-.278v.557h-.278v.557h-.278v.278h1.949v.278h.278v.278h.278v.278h.557v.557h.278v.278h.278v.278h.557v.278h1.114v-.278h.278v.557h-.278v.278h-.278v-.278h-.557v.278h-.557v.278h-.557v.557h-.557v.557h-.278v.278h-.278v.278h-.835v.278h-1.392v.557h.278v.278h.557v.278h.557v-.278h.278v-.278h.835v-.278h.278v-.557h.278v.557h.278v.278h-.278v-.278h-.278v.278h-.278v.278h-.278v.278h.278v.278h.278v.278h-.557v-.278h-1.392v.278h.557v.278h.278v.278h.557v.278h.278v.278h.278v.278h.278v.278h.278v.278ZM99.089,60.459v-.278h.278v.278h-.278ZM98.81,59.345v.557h-.278v-.557h.278ZM101.038,63.801v.278h-.278v-.278h.278ZM99.367,64.637v.278h-.278v-.278h.278ZM99.646,69.928h-.278v-.278h.278v.278ZM99.646,66.307h-.557v.278h-.278v-.557h.557v-.557h.278v-.557h.278v-.278h-.278v-.278h-.278v-.557h.278v-.278h.278v.278h.278v.278h.278v.278h-.278v.835h-.278v.557h-.278v.557ZM99.924,69.928v-.278h.557v-.278h.278v.278h-.278v.278h-.557ZM100.481,70.206v.278h-.278v-.278h.278ZM100.481,68.814v-.278h.278v.278h-.278ZM100.481,68.257v-.278h-.278v1.392h-.278v-1.392h.278v-.278h.278v.278h.278v.278h-.278ZM100.481,67.143h-.278v-.278h.278v.278ZM99.924,71.32v-.278h.278v.278h-.278ZM100.481,71.877h-.278v-.278h.278v.278ZM101.316,71.042v.557h.278v.278h-.278v-.278h-.278v-.557h-.278v.278h-.278v-.278h.278v-.557h.278v.557h.278ZM101.038,65.472v.557h-.278v.557h.278v.278h-.278v-.278h-.557v-.278h.278v-.278h.278v-.557h.278v-.278h.278v.278h-.278ZM101.595,66.029h-.278v-.278h.278v.278ZM101.873,65.472h-.278v-.278h.278v.278ZM102.43,64.637h-.278v.278h-.278v-.278h-.278v.278h-.557v-.278h.557v-.278h.278v.278h.278v-.278h.278v.278Z"/>
        <polygon points="75.418 101.396 75.139 101.396 75.139 101.118 74.861 101.118 74.861 101.675 74.582 101.675 74.582 101.953 74.304 101.953 74.304 102.232 74.025 102.232 74.025 102.51 73.747 102.51 73.747 102.788 74.025 102.788 74.025 103.067 73.747 103.067 73.747 103.345 73.19 103.345 73.19 103.624 72.633 103.624 72.633 103.902 72.354 103.902 72.354 104.181 72.076 104.181 72.076 104.459 71.797 104.459 71.797 104.738 71.519 104.738 71.519 105.016 71.241 105.016 71.241 105.573 70.962 105.573 70.962 105.852 70.684 105.852 70.684 106.409 70.962 106.409 70.962 106.687 70.405 106.687 70.405 106.966 70.127 106.966 70.127 107.244 70.684 107.244 70.684 106.966 71.797 106.966 71.797 106.687 72.076 106.687 72.076 106.966 72.633 106.966 72.633 106.687 72.354 106.687 72.354 105.573 72.076 105.573 72.076 105.852 71.797 105.852 71.797 106.13 71.519 106.13 71.519 106.409 71.241 106.409 71.241 105.852 71.797 105.852 71.797 105.573 72.076 105.573 72.076 105.016 72.354 105.016 72.354 105.295 72.633 105.295 72.633 104.738 73.19 104.738 73.19 104.181 73.747 104.181 73.747 103.902 74.304 103.902 74.304 104.181 74.861 104.181 74.861 104.459 75.139 104.459 75.139 104.181 75.418 104.181 75.418 103.902 75.696 103.902 75.696 104.181 76.253 104.181 76.253 104.459 76.81 104.459 76.81 104.738 77.089 104.738 77.089 105.016 77.646 105.016 77.646 105.295 77.924 105.295 77.924 105.016 78.203 105.016 78.203 105.295 78.481 105.295 78.481 105.573 78.759 105.573 78.759 106.13 79.316 106.13 79.316 105.573 79.038 105.573 79.038 105.295 78.759 105.295 78.759 104.738 78.203 104.738 78.203 104.181 77.924 104.181 77.924 103.902 77.367 103.902 77.367 103.624 77.089 103.624 77.089 103.345 76.253 103.345 76.253 103.067 74.304 103.067 74.304 102.788 74.861 102.788 74.861 102.232 75.139 102.232 75.139 102.51 75.418 102.51 75.418 102.788 76.253 102.788 76.253 102.51 75.975 102.51 75.975 101.953 75.418 101.953 75.418 101.396"/>
        <polygon points="76.532 104.738 76.253 104.738 76.253 104.459 75.418 104.459 75.418 105.016 75.139 105.016 75.139 105.295 75.418 105.295 75.418 105.852 74.861 105.852 74.861 105.573 74.582 105.573 74.582 105.295 74.861 105.295 74.861 104.459 73.468 104.459 73.468 104.738 73.19 104.738 73.19 105.295 74.025 105.295 74.025 105.573 74.304 105.573 74.304 106.13 75.139 106.13 75.139 106.409 75.418 106.409 75.418 106.13 75.696 106.13 75.696 105.573 76.253 105.573 76.253 105.295 77.089 105.295 77.089 105.016 76.532 105.016 76.532 104.738"/>
        <polygon points="74.861 96.94 74.582 96.94 74.582 97.497 74.304 97.497 74.304 98.054 74.025 98.054 74.025 98.611 73.747 98.611 73.747 99.168 73.468 99.168 73.468 99.725 73.19 99.725 73.19 100.282 72.911 100.282 72.911 100.561 72.633 100.561 72.633 101.396 72.354 101.396 72.354 101.953 72.076 101.953 72.076 103.067 72.354 103.067 72.354 102.788 72.633 102.788 72.633 102.51 72.354 102.51 72.354 102.232 72.911 102.232 72.911 101.675 73.19 101.675 73.19 101.396 73.468 101.396 73.468 101.118 73.19 101.118 73.19 100.839 73.468 100.839 73.468 101.118 73.747 101.118 73.747 101.396 73.468 101.396 73.468 101.953 73.19 101.953 73.19 102.232 72.911 102.232 72.911 103.067 73.19 103.067 73.19 102.788 73.468 102.788 73.468 102.51 73.747 102.51 73.747 101.953 74.304 101.953 74.304 101.396 74.582 101.396 74.582 100.839 74.861 100.839 74.861 100.282 74.582 100.282 74.582 100.561 74.304 100.561 74.304 100.282 74.025 100.282 74.025 100.004 74.582 100.004 74.582 99.725 74.861 99.725 74.861 99.447 74.582 99.447 74.582 99.168 74.861 99.168 74.861 98.054 75.139 98.054 75.139 97.776 75.418 97.776 75.418 98.054 75.139 98.054 75.139 98.333 75.418 98.333 75.418 98.89 75.139 98.89 75.139 99.168 75.418 99.168 75.418 100.004 76.253 100.004 76.253 100.561 75.975 100.561 75.975 100.282 75.696 100.282 75.696 100.561 75.418 100.561 75.418 101.396 75.696 101.396 75.696 101.675 75.975 101.675 75.975 101.953 76.253 101.953 76.253 102.232 76.532 102.232 76.532 102.788 76.81 102.788 76.81 103.067 77.367 103.067 77.367 102.788 77.089 102.788 77.089 101.675 76.532 101.675 76.532 101.396 76.81 101.396 76.81 101.118 76.532 101.118 76.532 100.839 76.81 100.839 76.81 101.118 77.089 101.118 77.089 101.675 77.646 101.675 77.646 101.118 77.367 101.118 77.367 100.561 77.089 100.561 77.089 100.004 76.81 100.004 76.81 99.447 76.532 99.447 76.532 98.611 76.253 98.611 76.253 98.333 75.975 98.333 75.975 97.497 75.696 97.497 75.696 97.219 75.418 97.219 75.418 96.105 74.861 96.105 74.861 96.94"/>
        <polygon points="74.304 108.915 74.304 108.637 74.025 108.637 74.025 108.358 73.747 108.358 73.747 108.08 73.468 108.08 73.468 107.801 73.19 107.801 73.19 107.523 72.911 107.523 72.911 107.244 70.962 107.244 70.962 107.523 70.405 107.523 70.405 107.801 70.127 107.801 70.127 108.08 69.848 108.08 69.848 108.358 70.127 108.358 70.127 108.637 70.405 108.637 70.405 108.915 70.962 108.915 70.962 109.472 70.405 109.472 70.405 109.75 70.127 109.75 70.127 109.472 70.405 109.472 70.405 108.915 70.127 108.915 70.127 108.637 69.848 108.637 69.848 110.029 70.405 110.029 70.405 110.307 70.127 110.307 70.127 111.143 70.405 111.143 70.405 110.864 70.684 110.864 70.684 111.143 71.241 111.143 71.241 111.421 71.797 111.421 71.797 111.143 71.519 111.143 71.519 110.586 71.241 110.586 71.241 110.307 71.519 110.307 71.519 109.75 71.797 109.75 71.797 109.472 72.354 109.472 72.354 109.194 72.076 109.194 72.076 108.915 71.519 108.915 71.519 108.08 71.241 108.08 71.241 107.801 71.797 107.801 71.797 108.08 72.354 108.08 72.354 108.637 72.076 108.637 72.076 108.915 72.354 108.915 72.354 109.194 72.633 109.194 72.633 108.915 73.468 108.915 73.468 109.472 72.633 109.472 72.633 109.75 72.076 109.75 72.076 110.307 72.354 110.307 72.354 110.586 71.797 110.586 71.797 110.864 72.076 110.864 72.076 111.421 72.354 111.421 72.354 111.143 72.911 111.143 72.911 110.864 73.468 110.864 73.468 110.586 73.747 110.586 73.747 110.029 74.304 110.029 74.304 109.75 74.582 109.75 74.582 108.915 74.304 108.915"/>
        <polygon points="75.975 105.852 75.975 106.13 75.696 106.13 75.696 106.687 75.139 106.687 75.139 106.409 74.861 106.409 74.861 106.966 75.418 106.966 75.418 107.523 75.139 107.523 75.139 108.637 75.418 108.637 75.418 108.358 75.696 108.358 75.696 107.801 75.975 107.801 75.975 107.523 76.253 107.523 76.253 107.244 76.532 107.244 76.532 106.966 77.089 106.966 77.089 106.687 77.367 106.687 77.367 105.852 77.646 105.852 77.646 105.573 76.81 105.573 76.81 105.852 76.532 105.852 76.532 105.573 76.253 105.573 76.253 105.852 75.975 105.852"/>
        <polygon points="69.57 111.143 69.848 111.143 69.848 110.586 69.57 110.586 69.57 109.472 68.734 109.472 68.734 109.194 69.291 109.194 69.291 108.915 69.57 108.915 69.57 107.801 69.291 107.801 69.291 108.08 69.013 108.08 69.013 108.358 68.734 108.358 68.734 108.637 68.456 108.637 68.456 108.915 68.177 108.915 68.177 109.194 67.899 109.194 67.899 109.472 68.177 109.472 68.177 109.75 68.734 109.75 68.734 110.307 69.013 110.307 69.013 110.586 69.291 110.586 69.291 110.864 69.57 110.864 69.57 111.143"/>
        <polygon points="75.139 100.561 75.418 100.561 75.418 100.004 75.139 100.004 75.139 99.725 74.861 99.725 74.861 100.282 75.139 100.282 75.139 100.561"/>
        <rect x="72.354" y="103.067" width=".557" height=".278"/>
        <polygon points="79.873 106.687 79.038 106.687 79.038 106.409 78.759 106.409 78.759 106.13 78.481 106.13 78.481 105.573 78.203 105.573 78.203 105.295 77.924 105.295 77.924 106.13 77.646 106.13 77.646 106.687 78.759 106.687 78.759 106.966 79.595 106.966 79.595 107.244 79.873 107.244 79.873 106.687"/>
        <path d="M74.582,107.244v-.557h-.278v-.557h-.278v-.278h-.278v-.278h-.835v.278h-.278v.278h.278v.557h.278v.557h.557v.557h.557v.557h.278v.278h.278v-1.392h-.278ZM73.747,106.966h-.278v-.278h.278v.278Z"/>
        <polygon points="72.076 103.067 71.797 103.067 71.797 103.902 72.076 103.902 72.076 103.624 72.354 103.624 72.354 103.345 72.076 103.345 72.076 103.067"/>
        <rect x="73.468" y="102.788" width=".278" height=".278"/>
        <rect x="74.861" y="105.295" width=".278" height=".278"/>
        <rect x="74.861" y="89.143" width=".278" height=".278"/>
        <polygon points="80.152 67.7 79.873 67.7 79.873 67.978 80.43 67.978 80.43 67.421 80.152 67.421 80.152 67.7"/>
        <rect x="79.873" y="111.421" width=".278" height=".278"/>
        <rect x="75.139" y="89.421" width=".278" height=".557"/>
        <rect x="74.582" y="89.421" width=".278" height=".278"/>
        <rect x="75.139" y="90.814" width=".278" height=".278"/>
        <path d="M79.595,68.257h-.557v.278h-.278v.278h-.557v.278h-.557v.278h-.835v.278h-1.949v.278h-.278v-.278h-1.114v-.278h-.835v-.278h-.557v-.278h-.557v-.278h-.278v-.278h-.557v.278h.278v.278h.278v.557h.278v.278h-.278v.278h.278v.278h.557v.278h-.278v.835h.278v.278h.278v.278h-.278v.278h.278v.557h-.278v.557h-.278v.557h.278v-.278h.557v.278h-.557v.278h.278v.278h-.278v-.278h-.278v.557h.278v.278h.278v.278h-.278v.278h.278v.557h.278v.278h-.278v-.278h-.278v-.557h-.278v1.114h.278v.278h.278v.835h-.278v.278h.278v.557h-.278v.278h.278v.557h.278v.278h-.278v-.278h-.278v.557h-.278v.557h.278v-.278h.278v-.278h.278v.278h-.278v.278h.278v.278h-.278v-.278h-.278v.557h.278v.557h-.278v.557h.278v.278h.278v.278h-.557v.557h-.278v.557h.278v-.278h.278v.278h-.278v.278h.278v.278h-.278v.278h-.278v.278h.557v.278h-.835v-.557h.278v-.278h-.278v-2.228h.278v-.278h-.278v-.557h.278v.278h.278v-.557h-.557v-2.228h.278v-.278h-.278v-.557h.278v-.278h-.278v-2.785h.278v-.278h-.278v-1.949h.557v-.557h-.278v.278h-.278v-.835h-.278v22.557h-.278v.278h.278v.557h-.278v2.228h-.278v1.392h-.278v1.392h-.278v1.114h-.278v1.114h-.278v.557h-.278v1.114h.278v-.835h.278v-.557h.278v-1.114h.278v-1.114h.278v-1.114h.278v-1.671h.278v-1.671h.278v-.278h-.278v-.278h.278v-3.62h.278v.278h.557v-.278h-.278v-.557h.278v.557h.278v.278h-.278v.278h-.557v3.063h-.278v.278h.557v.278h-.557v1.671h-.278v.278h.278v.278h-.278v1.114h-.278v1.392h-.278v.835h.278v-.278h.278v.278h-.278v.557h-.278v-.278h-.278v.835h-.278v.835h-.278v.557h-.278v.835h-.278v.557h-.278v.278h-.278v.557h.278v-.278h.278v-.278h.278v.278h-.278v.278h-.278v.557h-.278v-.557h-.278v.278h-.278v.278h-.278v.557h.278v-.278h.278v.278h-.278v.278h-.278v.557h-.278v.278h-.557v.278h-.278v.278h-.557v.278h-.278v1.114h-.278v-.557h-.557v-.278h-.557v.278h-.278v-.557h.557v-.278h.557v-.278h.557v-.278h.278v-.278h.278v-.278h.278v-.278h-.557v.278h-.278v.278h-.278v.278h-.557v.278h-.557v.278h-.557v.278h-.557v.557h.557v.278h.557v.278h.557v.278h.557v.278h.557v.278h.278v.278h.278v.278h.278v.278h.278v.278h.557v.557h.278v.278h.278v.278h.278v.278h.278v.278h.278v.557h.278v.278h.278v.278h.278v.557h.278v.557h.278v.278h.278v-.835h-.278v-.278h-.278v-.557h-.278v-.278h-.278v-.557h-.278v-.278h-.278v-.278h-.278v-.557h-.557v-.278h-.278v-.557h-.278v-.278h-.557v-.278h-.278v-.278h-.278v-.278h-.278v-.278h-.278v-.278h.278v.278h.278v.278h.278v.278h.557v.278h.278v.278h.278v.278h.278v.278h.278v.278h.278v-.557h-.278v-.278h.278v.278h.278v.557h.278v.278h.278v.278h-.278v.278h.278v.557h.278v.278h.278v-.278h.278v.278h.278v.278h.278v.557h.278v.278h.278v.557h.278v.278h-.278v-.278h-.278v-.557h-.278v-.278h-.278v-.557h-.278v-.278h-.278v.557h.278v.557h.278v.278h.278v.557h.278v.557h.278v.278h.278v-.557h.278v.557h.278v.278h-.278v-.278h-.278v.835h.278v.278h.278v.835h.278v.557h.278v.835h.278v.835h.278v1.114h.278v.557h.278v-.557h.278v.557h-.278v.278h-.278v-.278h-.278v-.557h-.278v-1.114h-.278v-.835h-.278v-.835h-.278v-.557h-.278v-.557h-.278v-.557h-.278v-.557h-.278v-.557h-.278v-.278h-.278v.557h.278v.557h.278v.557h.278v.557h.278v.557h.278v.835h.278v.835h.278v.557h.278v1.114h.278v.835h.278v1.949h.278v1.392h.278v1.671h.278v.835h.278v1.114h.278v-.557h.278v-1.114h.278v-1.392h.278v-1.949h.278v-.278h-.278v-.278h.278v-1.114h.278v-.557h.278v-.278h-.278v-.278h.278v-.557h.278v-.835h.278v-.835h.278v-.835h.278v-.557h.278v-.557h.278v-.835h.278v-.557h.278v-.557h.278v-.557h-.278v.278h-.278v.557h-.278v.557h-.278v.835h-.278v.557h-.278v.557h-.278v.835h-.278v.835h-.278v.557h-.278v.835h-.278v1.114h-.278v1.114h-.557v-.557h.278v-.557h.278v-1.392h.278v-.557h.278v-.835h.278v-.557h.278v-.835h.278v-.557h.278v-.835h-.278v.278h-.278v-.278h.278v-.835h.278v-.278h.278v.278h-.278v.835h.278v-.557h.278v-.557h.278v-.557h.278v-.278h.278v-.557h.278v-.278h.278v-.557h.278v-.278h.278v-.278h.278v-.557h-.278v.278h-.278v.278h-.278v.278h-.278v.557h-.278v.278h-.278v.557h-.278v.278h-.278v.557h-.278v-.557h.278v-.278h.278v-.557h.278v-.278h.278v-.557h.278v-.278h.278v-.278h.278v-.278h.278v-.278h.278v.278h.278v-.278h.278v-.557h-.278v.278h-.278v-.278h.278v-.278h.278v.278h.278v-.278h.278v-.278h-.557v-.278h.557v-.278h.278v.278h-.278v.278h.557v-.557h.278v-.278h-.278v-.278h.278v-.278h.278v-.278h.557v-.278h.278v-.278h.557v.278h-.557v.278h-.278v.278h.278v.278h-.278v.278h-.278v.278h-.278v.278h-.278v.278h.557v-.278h.278v-.278h.278v-.278h.278v-.278h.557v-.278h.557v-.278h.557v-.278h.557v-.278h.557v-.278h-.278v-.278h-.278v.278h-.278v.278h-.278v-.557h.557v-.278h-.835v.278h-.557v.278h.278v.278h-.278v.278h-.278v-.557h-.278v-.278h-.278v-.278h.278v-.278h-.278v-.278h-.557v.278h.278v.278h-.278v-.278h-.278v-.278h-.278v-.278h-.278v-.278h-.278v-.278h-.278v-.278h-.278v-.278h-.278v-.278h.278v.278h.278v-.557h-.278v-.278h-.278v.278h-.278v-.278h-.278v-.278h-.278v-.557h.278v.557h.278v.278h.278v-.557h-.278v-.557h-.278v-.557h-.278v-.557h-.278v.835h.278v.278h-.278v-.278h-.278v-.835h-.278v-.557h-.278v-.278h.278v.278h.278v.557h.278v-.835h-.278v-.835h-.278v-1.114h-.278v-1.114h-.278v-1.114h-.278v-2.228h-.278v-.278h.278v-.278h-.278v-1.949h.278v-.278h-.835v-.278h-.278v-.278h.278v.278h.835v-.278h-.557v-.835h.557v-20.886h-.835v-.278h-.278v-.278h.278v-.278h.278v-.557h.557v-1.114h.278v-.278h.278v-.278h.557v-.557h-.278v.278ZM72.354,71.042h-.278v-.278h.278v.278ZM66.506,110.029h-.278v-.278h.278v.278ZM84.051,110.586h-.278v-.278h.278v.278ZM73.747,74.383h.557v.278h-.557v-.278ZM74.304,73.548v.557h-.278v-.557h.278ZM74.025,72.713v-.278h.278v.278h-.278ZM72.911,76.054h.278v-.278h-.278v-.278h.278v-.278h-.278v-.557h.278v-.278h-.278v-.557h.278v-.278h-.278v-1.114h.278v-.278h-.278v-.278h.278v-.278h-.278v-.278h.278v-.278h.278v3.899h-.278v.278h.278v.835h-.278v.278h.557v.278h-.835v-.557ZM71.519,85.523h.557v.278h.557v.278h-.557v.557h.278v.278h.278v.278h-.278v-.278h-.278v-.278h-.278v.557h.278v.278h.278v.278h-.278v-.278h-.278v.278h-.278v-2.228ZM71.519,88.029h.557v.278h.278v.278h-.278v-.278h-.278v.278h-.278v-.557ZM71.797,91.371h-.278v-.557h.278v.557ZM72.354,90.814h-.278v-.557h.278v.557ZM72.076,89.421v-.278h-.278v.557h.278v.278h-.278v.557h-.278v-1.671h.835v.278h.278v.278h-.557ZM72.076,92.763h.278v.557h-.278v-.557ZM72.076,93.599h.278v.557h-.278v-.557ZM72.076,94.434h.278v.557h-.278v-.557ZM71.797,96.105h.278v.557h-.278v-.557ZM71.797,96.94h.278v.278h-.278v-.278ZM71.797,97.497h.278v.278h-.278v-.278ZM71.519,98.333h.278v.835h-.278v-.835ZM71.241,99.447h.278v.278h-.278v-.278ZM71.241,100.004h.278v.557h-.278v-.557ZM70.684,102.232h.278v.278h-.278v-.278ZM70.405,102.788h.278v.557h-.278v-.557ZM70.127,103.624h.278v.278h-.278v-.278ZM69.848,104.181h.278v.557h-.278v-.557ZM69.57,105.016h.278v.278h-.278v-.278ZM67.62,110.864h-.278v-.278h-.278v-.278h-.278v-.278h.278v.278h.278v.278h.278v.278ZM68.456,111.421h-.278v-.278h.278v.278ZM70.405,113.649h-.278v-.278h.278v.278ZM72.633,117.826v-.278h.278v.278h-.278ZM73.19,119.219v-.557h-.278v-.278h.278v.278h.278v.557h.278v.278h-.278v-.278h-.278ZM73.468,120.054v-.278h.278v.278h-.278ZM73.747,120.611v-.278h.278v.278h-.278ZM74.025,121.447v-.278h.278v.278h-.278ZM74.304,122.004v-.278h.278v.278h-.278ZM74.582,123.396h.278v.278h-.278v-.278ZM75.139,123.953v.278h-.278v-.278h.278ZM74.582,127.573v-1.392h-.278v-1.671h-.278v-1.114h.278v1.114h.278v1.671h.278v1.392h-.278ZM75.418,128.13h-.278v.278h-.278v-.557h.557v.278ZM75.418,127.573h-.278v-.278h.278v.278ZM75.418,127.016h-.278v-.557h.278v.557ZM75.696,126.181h-.278v-.835h.278v.835ZM75.696,124.788v.278h-.278v-.278h.278ZM75.696,122.561h-.278v-.278h.278v.278ZM76.253,121.168h-.278v.278h-.278v-.278h.278v-.835h.278v.835ZM77.089,118.94h-.278v.835h-.278v.278h-.278v-.278h.278v-.835h.278v-.557h.278v.557ZM79.038,100.561v.835h.278v1.114h.278v.278h-.278v-.278h-.278v-1.114h-.278v-.835h.278ZM78.481,98.611v.278h-.278v-.278h.278ZM78.203,98.333v-.278h.278v.278h-.278ZM78.481,100.004h.278v.278h-.278v-.278ZM78.759,99.168v.278h-.278v-.278h.278ZM78.481,97.776h-.278v-.278h.278v.278ZM77.924,94.156h.278v.278h-.278v-.278ZM77.924,94.713h.278v.278h-.278v-.278ZM77.924,95.548h.278v.557h-.278v-.557ZM77.924,96.383h.278v.278h-.278v-.278ZM77.924,96.94h.278v.278h-.278v-.278ZM77.924,99.447v1.671h.278v1.392h.278v.557h.278v.835h.278v.835h.278v.557h.278v.557h.278v.557h.278v.278h.278v.278h.278v.278h.278v.557h.278v.557h.557v.278h.278v.557h.278v.557h-.278v.278h-.278v.278h-.278v.278h-.278v.278h-.278v.278h-.278v.278h-.278v.278h-.278v.278h-.278v.557h-.278v.278h-.278v.278h-.278v.557h-.278v.557h-.278v.278h-.278v.278h-.278v.557h-.278v.278h-.278v.835h-.278v.278h-.278v.557h-.278v.557h-.278v.557h-.278v.557h-.278v.557h-.278v.557h-.278v.278h-.278v-.557h-.278v-.557h-.278v-.278h.557v.557h.278v-.278h.278v-.557h.278v-.557h.278v-.278h.278v-.557h.278v-.557h.278v-.557h.278v-1.114h.278v-.278h.278v-.278h.278v-.278h.278v-.557h.278v-.278h.278v-.278h.278v-.278h.278v-.557h-.278v.278h-.278v.278h-.278v.278h-.278v.278h-.557v-.278h.278v-.278h-.278v-.278h-.278v-.278h.557v.557h.557v-.278h.278v-.278h.278v-.278h.278v-.278h.278v-.557h.278v-1.671h-.835v.278h-.278v-.278h.278v-.278h.278v-.278h.278v-.278h.278v-1.114h-.278v-.278h-.835v-.278h-.557v.278h-.278v-.278h-.557v.278h-.278v.278h-.278v.278h-.278v.278h-.278v.278h-.278v.278h-.278v.278h-.278v.835h.557v.557h.557v.557h.557v.278h.557v-.278h.278v.278h-.278v.278h1.392v-.557h-.278v.278h-.557v-1.392h-.835v-.278h-.835v-.557h.835v.278h.278v-.278h.557v-.278h-.278v-.557h.557v-.278h-.278v-.278h.278v.278h.278v.835h-.278v.278h-.278v.278h.278v.278h-.278v.278h.278v.278h.278v.557h.278v.278h.278v.557h-.278v.278h-1.949v-.278h-.278v-.278h-.557v-.278h-.278v-.278h-.278v-.557h-.278v-.278h-.278v-.278h-.278v.278h-.278v.557h-.278v.278h-.278v.278h-.278v.278h-.557v.278h-.278v.278h-1.949v-.278h-.278v-.278h-.278v.835h.278v.557h.278v-.278h.557v.278h.278v.278h.557v-.278h.278v-.557h.278v.835h1.114v-.278h.278v-.557h.278v-.278h.278v-.278h-.278v-.278h.278v-1.114h.278v.278h.278v.278h-.278v.278h.278v.278h-.278v.278h.278v.278h.278v.557h.278v.557h.835v-.278h.278v.278h.278v.557h-1.114v-.278h-.278v-.278h-.278v-.278h-.278v.278h-.278v.278h.278v.278h-.278v.278h.278v.835h.557v.278h.278v-.278h.278v-.278h-.278v-.278h.278v-.278h.278v.278h.278v.278h-.278v.278h-.278v.557h-.278v.557h.557v.278h-.278v.278h-.278v.278h-.278v.278h-.278v.278h-.278v.557h-.278v.278h.278v.278h-.278v.557h-.278v-1.392h-.278v-.278h-.278v-.278h-.278v-.278h-.278v-.278h-.278v.835h.278v.278h.278v.557h.278v.557h-.278v-.278h-.278v-.835h-.278v-.278h-.278v-.835h-.278v-.278h-.278v-.557h-.278v-.557h-.278v-.278h-.278v-.278h-.278v-.557h-.278v-.278h-.278v-.278h-.278v-.557h-.278v-.278h-.278v-.278h-.278v-.278h-.278v-.278h-.278v-.557h-.557v-.557h-.557v-.557h-.557v-.557h.278v-.557h.557v-.557h.278v-.278h.278v-.278h.278v-.278h.278v-.557h.557v-.835h.278v-.278h.278v-.557h.278v-.557h.278v-.835h.278v-1.114h.278v-.835h.278v-1.114h.278v-1.949h.278v-1.392h.278v-.278h-.278v-.278h.278v-.278h-.278v-.278h.278v-.557h-.278v-.278h.278v-.835h.278v-.278h-.278v-1.671h.278v-.278h-.278v-1.671h.278v-.278h-.278v-3.063h.278v-.278h-.278v-1.114h.278v-.278h-.278v-.557h.278v-.278h-.278v-.278h.278v-.278h-.278v-1.114h.278v-.278h-.278v-.278h.278v-.278h-.278v-.557h.278v-.278h-.278v-.835h.278v-.557h-.278v-.835h.278v-.278h-.278v-1.949h.278v.278h.278v.278h-.278v1.114h.278v-.557h.278v-.557h.278v-1.114h.278v-.835h.278v-.835h.278v-.557h-.278v-.278h.278v-.278h-.278v-.835h.278v.278h.278v-.835h.278v-.278h-.557v.278h-.278v-.278h-.278v.278h-.278v-.278h-.278v-.278h.835v.278h.278v-.278h.557v.278h.278v-.278h.557v.278h-.557v.278h-.278v.835h-.278v.278h.278v.278h-.278v.278h.278v.278h-.278v.278h.278v.835h.278v.835h.278v.835h.278v.835h.278v.557h.278v-1.114h-.278v-.278h.278v-.278h-.278v-.835h.278v-.278h-.278v-.278h.278v-.278h-.278v-1.114h.278v-.278h-.278v-1.392h.278v-.278h-.278v-.557h.278v-.278h.278v1.114h.278v.278h-.278v.835h.278v.278h-.278v2.785h.278v.278h-.278v1.114h.278v.278h-.278v1.392h.278v.557h-.557v-.278h-.278v.557h.835v.278h-.557v.278h.278v12.253h.278v.278h-.278v.557h.278v.278h-.278v.278h.278v2.228h.278v.278h-.557v-1.392h-.278v-.278h.278v-.278h-.278v-3.899h-.278v-.278h.278v-1.392h-.278v-.278h.278v-.557h-.278v-.278h.278v-.557h-.278v-.278h.278v-.278h-.278v-.835h.278v-.278h-.278v-1.114h.278v-.278h-.278v-.278h.278v-.278h-.278v-.557h.278v-.278h-.278v-1.114h.278v-.278h-.278v-.278h.278v-.278h-.278v-1.114h-.278v.557h-.278v.835h-.278v.557h-.278v1.114h-.278v.278h.278v.557h-.278v.278h.278v.278h-.557v-.278h-.278v.278h-.278v.278h-.557v-.278h.278v-.278h.557v-.557h.278v-.278h-.278v-.278h.557v-.278h-.557v-.278h.278v-.278h-.278v-.278h-.278v-.835h-.278v-.835h-.278v-.278h-.278v.557h-.278v.278h.278v1.949h-.278v.278h.278v4.734h-.278v.278h.278v.557h-.278v.278h.278v.278h-.278v.278h.278v1.114h-.278v.278h.278v.278h-.278v.278h.278v3.342h-.278v.557h.278v.278h-.278v1.392h.278v-.278h.278v.278h-.278v.278h-.557v.278h.278v.278h-.278v.835h-.278v.835h.278v-.278h.278v-.557h.278v-.557h.278v-.557h.278v-.557h.278v-.557h.278v-.835h.278v-.835h.557v1.114h.278v.835h.278v.557h.278v.278h.278v.557h.278v.557h.278v.835h.278v-1.392h-.278v-.557h.278v-.278h-.557v-.278h-.278v-.557h-.278v-.278h.278v-.278h-.557v-.278h.557v.278h.278v.278h-.278v.278h.278v.557h.557v.278h.278v1.949h.278ZM75.696,73.826v-.278h.557v.278h-.557ZM76.253,74.383v.278h-.278v-.278h.278ZM75.696,72.713v-.278h.557v.278h-.557ZM75.418,93.042v.557h-.278v.278h.557v.835h.278v.557h.278v.278h-.278v-.278h-.278v-.557h-.278v-.557h-.557v.278h-.278v.557h-.557v-.278h.278v-.278h.278v-.557h.278v-.557h-.278v-.278h-.557v-.835h.278v.557h.278v.278h.557v-.278h-.278v-.278h.278v.278h1.392v.557h-.557v-.278h-.557ZM74.025,86.358v-.557h.278v.278h.557v-.557h.557v.557h.557v-.278h.278v.557h-.835v-.278h-.557v1.392h-.278v.278h-.557v-.278h.278v-.278h.278v-.835h-.557ZM74.582,85.244v-.278h.835v.278h-.835ZM76.253,83.016v.278h-.557v-.278h.557ZM75.975,82.738v-.278h.278v.278h-.278ZM75.975,84.409v.278h.278v.278h-.557v-.557h.278ZM75.418,87.75v-.557h-.278v-.557h.278v.557h.278v.278h.278v.278h.278v.278h-.278v-.278h-.557ZM75.696,90.535v.557h-.278v.835h-.278v.278h-.278v-.557h-.278v-.278h-.278v-.278h.278v-1.114h-.278v-.557h.278v-.557h.278v-.835h.278v.835h.278v.278h.278v.557h.278v.278h-.557v.557h.278ZM75.975,92.206v.278h-.278v-.278h.278ZM73.747,95.826v-.278h.278v.278h-.278ZM74.025,96.105v.557h-.557v-.557h.557ZM73.747,83.295v-.278h.278v-.278h.278v.557h-.557ZM77.646,72.713h.278v.557h-.278v-.557ZM77.646,73.548h.278v.278h-.278v-.278ZM77.646,74.383h.278v.557h-.278v-.557ZM77.646,75.219h.278v.278h-.278v-.278ZM77.646,76.054h.278v.557h-.278v-.557ZM77.646,78.282h.278v.557h-.278v-.557ZM77.646,79.118h.278v.557h-.278v-.557ZM77.646,79.953h.278v.278h-.278v-.278ZM77.646,80.51h.278v.557h-.278v-.557ZM77.924,92.763h-.278v-.557h.278v.557ZM77.924,91.928h-.278v-.278h.278v.278ZM77.924,91.371h-.278v-.278h.278v.278ZM77.924,89.978h-.278v-.557h.278v.557ZM77.924,88.864h-.278v-.278h.278v.278ZM77.924,88.307h-.278v-.557h.278v.557ZM77.924,87.194h-.278v-.278h.278v.278ZM77.924,86.637h-.278v-.278h.278v.278ZM77.924,86.08h-.278v-.278h.278v.278ZM77.924,85.523h-.278v-.278h.278v.278ZM77.924,84.966h-.278v-.278h.278v.278ZM77.924,84.409h-.278v-.557h.278v.557ZM77.924,83.573h-.278v-.278h.278v.278ZM77.924,82.738h-.278v-.557h.278v.557ZM77.924,72.156v-.278h.557v20.329h-.278v-10.304h-.557v-.278h.557v-3.899h-.278v.278h-.278v-.278h.278v-.278h-.278v-.278h.278v.278h.278v-5.291h-.278v.278h-.278v-.278h.278Z"/>
        <rect x="74.582" y="91.092" width=".278" height=".278"/>
        <rect x="78.481" y="103.902" width=".278" height=".278"/>
        <rect x="77.646" y="103.067" width=".557" height=".278"/>
        <rect x="74.861" y="89.978" width=".278" height=".557"/>
        <polygon points="80.987 108.08 80.709 108.08 80.709 107.523 80.43 107.523 80.43 107.244 80.152 107.244 80.152 107.801 80.43 107.801 80.43 108.358 80.152 108.358 80.152 108.637 79.873 108.637 79.873 109.472 80.152 109.472 80.152 108.915 80.43 108.915 80.43 109.194 81.266 109.194 81.266 109.472 80.152 109.472 80.152 109.75 80.43 109.75 80.43 110.586 80.152 110.586 80.152 111.143 80.709 111.143 80.709 110.586 80.987 110.586 80.987 110.307 81.266 110.307 81.266 110.029 81.544 110.029 81.544 109.75 81.823 109.75 81.823 109.472 82.101 109.472 82.101 109.194 81.823 109.194 81.823 108.915 81.544 108.915 81.544 108.637 81.266 108.637 81.266 108.358 80.987 108.358 80.987 108.08"/>
        <rect x="78.203" y="103.345" width=".278" height=".557"/>
        <polygon points="77.924 101.675 77.646 101.675 77.646 102.51 77.367 102.51 77.367 102.788 78.203 102.788 78.203 102.51 77.924 102.51 77.924 101.675"/>
        <rect x="69.57" y="107.523" width=".278" height=".278"/>
        <path d="M78.759,36.51h-.835v.278h-.278v-.278h-.278v.278h-.278v.278h-.278v.278h-.557v.557h-.557v.278h-.278v.557h-.278v.278h.278v.278h.278v.278h.278v.278h.278v.278h.278v.278h.278v.278h.557v.278h.278v-.278h.557v-.835h-.278v-.557h-.278v-.278h-.278v.278h-.278v-.278h-.278v.278h-.278v-.278h-.278v-.278h.835v-.278h.278v.278h.278v-.278h.278v-.557h.278v-.835h.278v.278h.278v.835h-.278v.278h-.278v.278h-.278v.278h.278v.278h.278v.278h.278v.835h.278v.278h-.557v.278h-.557v.278h.835v-.278h.835v-.278h.278v-1.392h-.557v-.557h.278v-.278h.278v-1.392h-.557v-.278h-.557v-.278ZM78.759,39.016h-.278v-.278h.278v.278Z"/>
        <rect x="67.62" y="40.687" width=".278" height=".278"/>
        <rect x="65.114" y="38.459" width=".278" height=".278"/>
        <rect x="67.342" y="40.409" width=".278" height=".278"/>
        <polygon points="69.57 44.586 69.57 44.029 69.291 44.029 69.291 43.75 69.013 43.75 69.013 44.307 69.291 44.307 69.291 45.143 69.57 45.143 69.57 45.421 69.848 45.421 69.848 44.586 69.57 44.586"/>
        <rect x="76.81" y="46.257" width=".278" height=".278"/>
        <rect x="74.861" y="52.105" width=".278" height=".278"/>
        <rect x="77.089" y="45.7" width=".278" height=".278"/>
        <rect x="67.62" y="36.788" width=".278" height=".278"/>
        <rect x="67.342" y="37.067" width=".278" height=".278"/>
        <polygon points="66.785 37.345 66.785 37.624 66.506 37.624 66.506 37.902 67.063 37.902 67.063 37.624 67.342 37.624 67.342 37.345 66.785 37.345"/>
        <rect x="67.063" y="36.51" width=".278" height=".278"/>
        <polygon points="65.949 37.902 65.949 37.624 66.228 37.624 66.228 37.345 65.671 37.345 65.671 37.624 65.114 37.624 65.114 37.902 64.557 37.902 64.557 38.181 64.278 38.181 64.278 38.459 64.835 38.459 64.835 38.181 65.392 38.181 65.392 37.902 65.949 37.902"/>
        <rect x="65.949" y="37.902" width=".557" height=".278"/>
        <polygon points="66.785 37.067 67.063 37.067 67.063 36.788 66.506 36.788 66.506 37.067 66.228 37.067 66.228 37.345 66.785 37.345 66.785 37.067"/>
        <rect x="74.861" y="40.966" width=".278" height=".557"/>
        <rect x="74.861" y="36.51" width=".278" height=".278"/>
        <polygon points="74.582 39.295 74.582 39.852 74.304 39.852 74.304 40.13 74.025 40.13 74.025 40.409 73.747 40.409 73.747 40.687 73.468 40.687 73.468 40.966 72.911 40.966 72.911 41.244 73.19 41.244 73.19 41.523 72.911 41.523 72.911 42.358 74.025 42.358 74.025 42.08 74.304 42.08 74.304 41.801 74.582 41.801 74.582 40.687 74.861 40.687 74.861 39.573 75.139 39.573 75.139 39.295 74.582 39.295"/>
        <polygon points="75.139 36.232 75.139 35.953 75.418 35.953 75.418 35.675 74.861 35.675 74.861 36.232 75.139 36.232"/>
        <path d="M74.861,36.788h-.278v-.557h-.278v-.557h-.278v-.278h-.557v-.278h-.835v.278h.278v.278h-.278v.278h.278v.557h.557v.557h.557v.557h.278v.278h.278v.278h.557v-.278h-.278v-1.114ZM74.025,36.51h-.278v-.278h.278v.278Z"/>
        <polygon points="75.975 37.624 75.975 37.345 76.253 37.345 76.253 37.067 76.532 37.067 76.532 36.788 76.81 36.788 76.81 36.51 77.089 36.51 77.089 36.232 77.367 36.232 77.367 35.675 77.646 35.675 77.646 35.118 77.089 35.118 77.089 35.675 76.81 35.675 76.81 35.118 76.253 35.118 76.253 35.396 75.975 35.396 75.975 35.675 75.696 35.675 75.696 36.232 75.418 36.232 75.418 37.624 75.139 37.624 75.139 37.902 75.696 37.902 75.696 37.624 75.975 37.624"/>
        <rect x="72.633" y="42.358" width=".278" height=".278"/>
        <rect x="79.316" y="41.801" width=".278" height=".278"/>
        <polygon points="74.582 42.358 74.861 42.358 74.861 42.08 75.418 42.08 75.418 41.801 74.582 41.801 74.582 42.358"/>
        <rect x="70.962" y="35.675" width=".278" height=".278"/>
        <rect x="78.481" y="44.029" width=".278" height=".278"/>
        <polygon points="75.418 42.358 74.861 42.358 74.861 42.637 74.582 42.637 74.582 42.358 74.304 42.358 74.304 42.637 73.747 42.637 73.747 42.915 73.19 42.915 73.19 42.637 72.911 42.637 72.911 43.194 73.19 43.194 73.19 43.472 73.747 43.472 73.747 43.75 74.025 43.75 74.025 43.472 74.304 43.472 74.304 43.75 74.582 43.75 74.582 43.472 74.861 43.472 74.861 42.915 75.139 42.915 75.139 42.637 75.418 42.637 75.418 43.194 75.139 43.194 75.139 43.472 75.418 43.472 75.418 43.75 75.975 43.75 75.975 43.472 76.532 43.472 76.532 43.194 76.81 43.194 76.81 42.915 76.253 42.915 76.253 42.637 75.696 42.637 75.696 42.08 75.418 42.08 75.418 42.358"/>
        <path d="M76.532,49.042v-.278h.278v.278h.278v-.557h.278v-.278h-.278v-.278h.278v-.557h.278v-1.114h.278v-.835h.278v-.557h.278v-.557h-.278v.278h-.278v.278h-.278v.278h-.278v.278h.278v.557h-.278v.835h-.557v.278h-.278v.835h-.278v.278h-.278v.278h-.278v1.114h-.278v.557h-.278v.278h-.278v-.835h-.278v-.557h-.278v-.278h-.278v-.835h-.278v-.278h-.278v-.278h-.278v-.835h-.278v-.557h-.278v-.557h-.278v-.278h.278v.278h.278v.278h.278v.557h.278v.557h.278v.557h.278v.278h.278v.557h.278v.835h.278v.278h.557v-.835h.278v-.557h.278v-.557h.278v-.557h.278v-.557h.278v-.557h.278v-.557h-.557v.278h-1.392v.557h-.278v-.557h-1.671v-.278h-.278v-.278h-.557v-.278h-.278v-.278h-.278v.557h.278v.835h.278v.835h.278v1.392h.278v.835h.278v.557h.278v.278h.278v.278h.278v.278h.278v.278h.278v.557h.557v-.278h.278v-.278h.278v-.278h.278v-.278h.278v-.278h.278v-.278h.278v-.278h-.278ZM74.025,45.7h.278v.278h.278v.278h.278v.278h.278v-.278h.278v-.278h.278v-.278h.278v.278h-.278v.278h-.278v1.392h-.557v-1.114h-.557v-.557h-.278v-.278Z"/>
        <rect x="65.392" y="38.181" width=".557" height=".278"/>
        <rect x="79.595" y="32.89" width=".278" height=".278"/>
        <rect x="79.038" y="32.89" width=".278" height=".557"/>
        <rect x="79.316" y="32.333" width=".278" height=".557"/>
        <rect x="79.038" y="31.776" width=".278" height=".557"/>
        <rect x="78.759" y="31.219" width=".278" height=".557"/>
        <rect x="78.759" y="32.611" width=".278" height=".278"/>
        <polygon points="82.658 37.345 82.658 37.624 83.215 37.624 83.215 37.345 82.937 37.345 82.937 37.067 82.38 37.067 82.38 37.345 82.658 37.345"/>
        <polygon points="81.823 36.51 81.823 36.788 82.101 36.788 82.101 37.067 82.38 37.067 82.38 36.51 82.101 36.51 82.101 36.232 81.544 36.232 81.544 36.51 81.823 36.51"/>
        <rect x="80.987" y="34.839" width=".278" height=".278"/>
        <polygon points="77.646 28.991 77.646 29.826 77.924 29.826 77.924 30.383 78.203 30.383 78.203 30.94 78.481 30.94 78.481 31.219 78.759 31.219 78.759 30.662 78.481 30.662 78.481 30.105 78.203 30.105 78.203 29.548 77.924 29.548 77.924 28.713 77.646 28.713 77.646 28.434 77.367 28.434 77.367 28.991 77.646 28.991"/>
        <rect x="79.873" y="33.168" width=".278" height=".557"/>
        <rect x="80.152" y="33.725" width=".278" height=".278"/>
        <polygon points="60.101 63.801 60.38 63.801 60.38 64.08 60.658 64.08 60.658 63.801 60.937 63.801 60.937 64.08 61.215 64.08 61.215 63.523 60.658 63.523 60.658 63.244 60.38 63.244 60.38 62.966 59.823 62.966 59.823 62.687 58.709 62.687 58.709 63.244 57.873 63.244 57.873 63.801 57.316 63.801 57.316 64.08 57.038 64.08 57.038 64.358 56.481 64.358 56.481 64.915 55.924 64.915 55.924 65.472 56.203 65.472 56.203 65.194 56.759 65.194 56.759 64.915 57.873 64.915 57.873 64.637 57.595 64.637 57.595 64.358 58.152 64.358 58.152 64.637 58.709 64.637 58.709 64.358 58.43 64.358 58.43 64.08 58.709 64.08 58.709 64.358 58.987 64.358 58.987 64.08 59.823 64.08 59.823 64.358 60.101 64.358 60.101 63.801"/>
        <rect x="68.734" y="34.839" width=".278" height=".278"/>
        <rect x="67.342" y="36.232" width=".557" height=".278"/>
        <polygon points="74.025 25.092 74.304 25.092 74.304 23.978 74.582 23.978 74.582 22.864 74.861 22.864 74.861 21.75 75.139 21.75 75.139 22.864 75.418 22.864 75.418 23.7 75.696 23.7 75.696 24.814 75.975 24.814 75.975 25.649 76.253 25.649 76.253 26.485 76.532 26.485 76.532 27.32 76.81 27.32 76.81 27.877 77.089 27.877 77.089 28.434 77.367 28.434 77.367 27.599 77.089 27.599 77.089 27.042 76.81 27.042 76.81 26.206 76.532 26.206 76.532 25.371 76.253 25.371 76.253 24.535 75.975 24.535 75.975 23.421 75.696 23.421 75.696 22.586 75.418 22.586 75.418 21.472 75.139 21.472 75.139 21.194 75.418 21.194 75.418 20.915 75.139 20.915 75.139 20.358 74.861 20.358 74.861 21.472 74.582 21.472 74.582 22.586 74.304 22.586 74.304 23.7 74.025 23.7 74.025 24.814 73.747 24.814 73.747 25.928 74.025 25.928 74.025 25.092"/>
        <rect x="69.013" y="34.561" width=".278" height=".278"/>
        <rect x="68.456" y="35.118" width=".278" height=".278"/>
        <rect x="68.177" y="35.396" width=".278" height=".278"/>
        <rect x="67.899" y="35.675" width=".278" height=".557"/>
        <rect x="69.291" y="34.004" width=".278" height=".557"/>
        <polygon points="71.519 32.054 71.241 32.054 71.241 32.333 70.962 32.333 70.962 33.168 71.241 33.168 71.241 32.89 71.519 32.89 71.519 32.333 71.797 32.333 71.797 31.776 71.519 31.776 71.519 32.054"/>
        <polygon points="73.19 27.32 73.468 27.32 73.468 26.763 73.747 26.763 73.747 25.928 73.468 25.928 73.468 26.485 73.19 26.485 73.19 27.042 72.911 27.042 72.911 27.877 73.19 27.877 73.19 27.32"/>
        <rect x="69.57" y="33.725" width=".278" height=".278"/>
        <polygon points="71.241 31.497 71.519 31.497 71.519 30.94 71.797 30.94 71.797 30.383 72.076 30.383 72.076 29.826 72.354 29.826 72.354 29.269 72.633 29.269 72.633 28.713 72.911 28.713 72.911 27.877 72.633 27.877 72.633 28.434 72.354 28.434 72.354 28.991 72.076 28.991 72.076 29.548 71.797 29.548 71.797 30.105 71.519 30.105 71.519 30.662 71.241 30.662 71.241 31.219 70.962 31.219 70.962 32.054 71.241 32.054 71.241 31.497"/>
        <polygon points="70.127 33.447 70.405 33.447 70.405 32.89 70.684 32.89 70.684 32.333 70.405 32.333 70.405 32.611 70.127 32.611 70.127 33.168 69.848 33.168 69.848 33.725 70.127 33.725 70.127 33.447"/>
        <rect x="70.684" y="32.054" width=".278" height=".278"/>
        <polygon points="80.709 34.561 80.709 34.839 80.987 34.839 80.987 34.282 80.709 34.282 80.709 34.004 80.43 34.004 80.43 34.561 80.709 34.561"/>
        <polygon points="46.177 61.016 46.734 61.016 46.734 60.738 47.013 60.738 47.013 60.459 47.291 60.459 47.291 60.181 47.57 60.181 47.57 59.902 47.848 59.902 47.848 59.624 48.127 59.624 48.127 59.067 47.848 59.067 47.848 59.345 47.57 59.345 47.57 59.624 47.291 59.624 47.291 59.902 47.013 59.902 47.013 60.181 46.734 60.181 46.734 60.459 46.456 60.459 46.456 60.738 45.899 60.738 45.899 61.295 46.177 61.295 46.177 61.016"/>
        <polygon points="53.975 62.687 53.418 62.687 53.418 62.966 53.139 62.966 53.139 63.244 52.861 63.244 52.861 63.523 52.582 63.523 52.582 64.358 53.418 64.358 53.418 64.08 53.975 64.08 53.975 64.358 53.696 64.358 53.696 64.637 54.253 64.637 54.253 64.08 54.532 64.08 54.532 63.523 54.253 63.523 54.253 63.244 53.975 63.244 53.975 62.687"/>
        <polygon points="48.405 58.788 48.684 58.788 48.684 57.953 48.405 57.953 48.405 58.232 48.127 58.232 48.127 59.067 48.405 59.067 48.405 58.788"/>
        <path d="M63.165,61.016v-.278h-.557v.278h-.557v-.278h-.557v.557h-.278v.278h-.278v.278h-.557v.278h-.278v.557h.278v.278h.557v-.278h.557v-.278h.278v-.278h-.278v-.278h.278v.278h1.114v.278h-.278v.278h.278v.278h-.278v-.278h-.557v-.278h-.278v.278h-.278v.278h-.557v.278h.278v.278h.278v.278h1.392v.278h.278v-.278h.278v-.278h-.278v-.835h.278v-.557h-.278v-.557h.278v-.557h-.278ZM61.215,62.409h-.278v-.278h.278v.278Z"/>
        <rect x="48.684" y="58.788" width=".278" height=".557"/>
        <rect x="44.785" y="61.852" width=".278" height=".278"/>
        <rect x="50.076" y="53.497" width=".278" height=".278"/>
        <polygon points="45.62 61.573 45.899 61.573 45.899 61.295 45.342 61.295 45.342 61.573 45.063 61.573 45.063 61.852 45.62 61.852 45.62 61.573"/>
        <polygon points="51.19 54.054 51.19 54.333 51.468 54.333 51.468 54.611 52.025 54.611 52.025 54.333 51.747 54.333 51.747 54.054 51.468 54.054 51.468 53.776 51.19 53.776 51.19 53.497 50.911 53.497 50.911 54.054 51.19 54.054"/>
        <polygon points="52.304 54.89 52.304 55.168 52.861 55.168 52.861 54.89 52.582 54.89 52.582 54.611 52.025 54.611 52.025 54.89 52.304 54.89"/>
        <rect x="45.62" y="61.852" width=".278" height=".278"/>
        <polygon points="46.177 61.295 46.177 61.573 45.899 61.573 45.899 61.852 46.456 61.852 46.456 61.573 46.734 61.573 46.734 61.295 46.177 61.295"/>
        <polygon points="77.924 35.953 77.646 35.953 77.646 36.51 77.924 36.51 77.924 36.232 78.759 36.232 78.759 36.51 79.316 36.51 79.316 36.788 79.873 36.788 79.873 36.51 79.595 36.51 79.595 36.232 79.038 36.232 79.038 35.953 78.481 35.953 78.481 35.675 78.203 35.675 78.203 35.396 77.924 35.396 77.924 35.953"/>
        <rect x="46.734" y="61.016" width=".278" height=".278"/>
        <rect x="62.329" y="60.459" width=".278" height=".278"/>
        <path d="M52.861,60.459v.278h-.278v-.278h-.278v.278h-.278v.278h.278v.278h.557v.278h.278v.278h.278v.278h.557v.278h.557v.278h.278v.278h.557v-.278h.278v-.278h.278v-.278h-.278v-.278h-.278v-.278h-.278v.278h-.278v.278h-.557v-.278h-.278v-.557h.835v-.557h-.278v.278h-.278v-.278h.278v-.557h-.278v.278h-.278v-.278h-1.392v.278h.278ZM53.139,60.459h.278v.278h-.278v-.278Z"/>
        <path d="M51.19,62.966h.278v.278h.557v.278h.278v-.278h.278v-.278h.278v-.278h.278v-.835h-.557v-.278h-.557v-.557h-.278v.278h-.278v.278h-.278v.278h-.278v.278h-.557v.557h.835v.278ZM52.582,62.13h.278v.278h-.278v-.278ZM52.025,62.409h.278v.278h-.278v-.278Z"/>
        <rect x="60.937" y="60.459" width=".278" height=".278"/>
        <rect x="54.253" y="65.75" width=".278" height=".278"/>
        <polygon points="60.658 60.459 60.38 60.459 60.38 60.738 60.101 60.738 60.101 60.459 58.709 60.459 58.709 60.181 58.43 60.181 58.43 60.459 58.152 60.459 58.152 60.181 57.873 60.181 57.873 59.902 57.038 59.902 57.038 59.624 56.203 59.624 56.203 59.902 56.481 59.902 56.481 60.181 57.038 60.181 57.038 60.459 57.316 60.459 57.316 60.738 57.595 60.738 57.595 61.016 57.873 61.016 57.873 61.295 58.152 61.295 58.152 61.573 58.987 61.573 58.987 61.852 59.266 61.852 59.266 62.13 59.823 62.13 59.823 61.852 60.101 61.852 60.101 61.573 60.658 61.573 60.658 61.295 60.937 61.295 60.937 60.738 60.658 60.738 60.658 60.459"/>
        <polygon points="54.532 62.687 54.253 62.687 54.253 63.244 54.81 63.244 54.81 62.966 54.532 62.966 54.532 62.687"/>
        <rect x="52.025" y="63.801" width=".278" height=".278"/>
        <rect x="54.253" y="58.788" width=".278" height=".278"/>
        <rect x="54.253" y="61.573" width=".557" height=".278"/>
        <path d="M56.481,61.016v-.278h-.278v-.278h-.278v-.557h-.278v-.278h-.278v-.278h-.557v-.278h-.278v.557h.278v.835h.278v.278h.278v.835h.278v.278h.557v-.278h.278v-.278h.278v.278h-.278v.278h-.278v.278h.835v.278h.278v.278h-.278v-.278h-.557v.278h-.557v.278h-.278v.278h-.278v.278h-.278v.835h-.278v.278h-.278v.278h.278v.278h-.278v.278h.557v-.278h.278v-.278h.278v-.278h.557v-.557h.557v-.557h.557v-.278h.278v-.278h.278v-.278h.557v-.278h.557v-.278h-.835v-.278h-.278v-.278h-.278v-.278h-.278v-.278h-.278v-.278h-.278v.278h-.278ZM56.481,63.244h-.278v-.278h.278v.278Z"/>
        <rect x="55.924" y="59.345" width=".278" height=".278"/>
        <rect x="56.481" y="60.459" width=".278" height=".278"/>
        <rect x="56.203" y="60.181" width=".278" height=".278"/>
        <polygon points="48.405 59.345 48.405 59.624 48.127 59.624 48.127 59.902 48.684 59.902 48.684 59.345 48.405 59.345"/>
        <polygon points="80.43 37.902 80.152 37.902 80.152 38.181 80.43 38.181 80.43 38.738 81.266 38.738 81.266 39.016 80.152 39.016 80.152 38.459 79.873 38.459 79.873 39.295 80.43 39.295 80.43 40.409 80.152 40.409 80.152 40.966 80.43 40.966 80.43 40.687 80.709 40.687 80.709 40.13 80.987 40.13 80.987 39.852 81.266 39.852 81.266 39.573 81.544 39.573 81.544 39.295 81.823 39.295 81.823 39.016 82.101 39.016 82.101 38.738 81.823 38.738 81.823 38.459 81.544 38.459 81.544 38.181 81.266 38.181 81.266 37.902 80.987 37.902 80.987 37.345 80.43 37.345 80.43 37.902"/>
        <path d="M71.241,35.118v.557h.278v-.278h.278v-.278h.278v-.278h.278v-.557h.278v.557h.278v-.278h.278v-.557h.278v-.278h.278v-.278h.557v.278h.557v.278h.557v-.557h1.114v.278h.278v1.114h.835v-.557h.278v.557h.278v.557h.557v.278h.278v-.557h-.278v-.278h-.278v-.557h-.278v-.278h-.278v-.278h-.278v-.278h-.278v-.278h-.278v-.557h-.557v.278h.278v.278h-.278v-.278h-.557v-.278h.557v-.278h-.278v-.278h-.278v-.278h-.278v-.278h-.278v-.278h-.278v-.278h-.278v.278h-.278v.278h-.278v.278h-.278v.278h-.278v.278h-.278v.278h-.278v.278h.557v-.278h.835v.278h-.835v.278h-.557v-.278h-.278v.278h-.278v.557h-.278v.278h-.278v.278h-.278v.278h-.278v.557h-.278ZM74.861,32.054h.278v-.278h-.278v-.278h.278v.278h.278v.278h-.278v.278h.278v.278h.278v.278h-.278v-.278h-.278v.278h-.278v-.835Z"/>
        <path d="M73.747,32.054v-.278h.278v-.278h.278v-.278h.278v-.557h.278v-.278h.557v.835h.278v.278h.278v.278h.278v.278h.278v.278h.557v-.278h-.278v-.278h-.278v-.557h-.278v-.557h-.278v-.557h-.278v-.278h-.278v-.557h-.278v-.278h-.278v.557h-.278v.278h-.278v.557h-.278v.557h-.278v.557h-.278v.557h.278ZM74.861,29.826h.278v.278h-.278v-.278Z"/>
        <rect x="73.19" y="32.054" width=".278" height=".278"/>
        <polygon points="69.848 40.13 69.57 40.13 69.57 39.295 69.291 39.295 69.291 39.016 68.734 39.016 68.734 38.738 69.57 38.738 69.57 37.624 69.848 37.624 69.848 37.067 69.57 37.067 69.57 37.345 69.291 37.345 69.291 37.902 68.734 37.902 68.734 38.181 68.456 38.181 68.456 38.459 68.177 38.459 68.177 39.295 68.734 39.295 68.734 39.852 69.013 39.852 69.013 40.13 69.291 40.13 69.291 40.409 69.848 40.409 69.848 40.13"/>
        <path d="M70.684,47.928v-.278h.557v-.835h.278v.835h-.278v1.392h.278v1.949h.278v1.949h.278v-.278h.278v.278h-.278v.278h-.278v.557h.278v-.278h.278v.278h-.278v.835h-.278v.278h.278v.557h-.278v.278h.835v-.278h.835v-.278h.835v-.278h.278v.278h.278v-.278h.557v.278h.278v-.278h.278v.278h1.114v.278h.835v.278h.278v.278h.557v.278h.278v.278h.557v-.278h-.278v-.278h-.278v-.278h-.278v-1.671h.278v-.278h-.278v-1.114h-.278v2.785h-.278v-3.342h.278v-.278h-.278v-.278h.278v-1.671h.278v-1.392h.278v-1.114h.278v-1.114h.278v-.557h.278v-.835h-.278v.557h-.278v.557h-.278v-.557h.278v-.557h.278v-.278h.278v.278h.278v-.557h.278v-.557h-.278v.278h-.278v.278h-.278v-.278h.278v-.278h.278v-.557h.278v.557h.278v-.835h-.278v-.557h.278v-.278h.278v-.557h.278v-.278h.278v-.278h.278v.278h.278v-.278h.278v-.278h.278v-.278h-.278v-.278h.278v-.278h.278v-.278h.278v.278h.278v-.557h.278v-.278h.278v.278h.557v.278h-.557v-.278h-.278v.557h-.278v.278h-.278v.278h-.278v.278h-.278v.557h-.278v.278h-.278v.278h-.278v.278h-.278v.835h-.278v.278h-.278v.557h-.278v.557h-.278v.835h.278v-.557h.278v-.278h.278v-.835h.278v-.278h.278v-.557h.278v-.557h.278v-.278h.278v-.278h.278v-.278h.278v-.278h.278v-.557h.557v-.278h.278v-.278h.557v-.278h.557v-.278h.557v-.557h.557v-.278h-.557v-.278h-.835v.278h.557v.278h-.835v-.557h-.835v.278h.557v.557h-.278v-.278h-.278v-.278h-.557v-.278h-.278v-.278h-.557v-.278h-.278v-.278h-.278v-.278h-.278v-.278h-.278v-.278h-.278v-.278h-.278v-.278h-.278v-.278h.278v.278h.278v.278h.278v-.557h-.278v-.278h-.557v-.557h-.278v.557h-.278v-.278h-.278v-.278h-.278v-.278h.278v.278h.557v-.278h-.278v-.278h-.278v-.557h-.278v-.278h-.278v.278h-.278v-.278h-.278v-.557h-.278v-.278h.278v-.835h-.278v-.278h-.278v-.557h-.278v-.557h-.278v-.557h-.278v.835h.278v.557h.278v.278h-.278v-.278h-.278v-.557h-.278v-.835h-.278v-.278h.278v.278h.278v-.557h-.278v-.835h-.278v-.278h-.278v-.557h-.278v.278h-.278v-.278h.278v-1.114h-.278v-.835h-.278v-.835h-.278v-1.114h-.278v-.835h-.278v1.392h-.278v.835h-.278v.835h-.278v.835h-.278v.557h-.278v.835h-.278v.557h-.278v.557h-.278v.835h-.278v.557h-.278v.557h-.278v.557h.278v-.278h.278v.278h-.278v.557h-.278v.557h-.278v.278h-.278v.557h-.278v.278h-.278v-.278h.278v-.557h-.278v.278h-.278v.557h-.278v.278h-.278v.278h-.278v.278h-.278v.278h-.278v.557h-.278v.278h-.278v.278h-.278v.278h-.278v.278h.557v-.278h.278v-.278h.278v-.278h.278v-.557h.278v-.278h.278v-.278h.278v-.278h.278v-.278h.278v.278h-.278v.278h-.278v.278h-.278v.278h-.278v.557h-.278v.278h-.278v.278h-.278v.278h-.278v.278h-.557v.278h-.278v.278h-.278v.278h-.278v.278h-.557v.278h-.557v.557h.557v.278h.278v.278h-.278v-.278h-.557v-.278h-.278v-.278h-.278v.278h-.278v-.278h-1.114v-.278h-.278v.557h.278v.278h.835v.278h.278v.278h.557v.278h.278v.278h.557v.278h.278v.278h.278v.278h.278v.278h.278v.557h.278v.278h.278v.557h.278v.278h.278v.557h.278v-.835h-.278v-.278h-.278v-.557h-.278v-.278h-.278v-.557h-.278v-.278h-.278v-.278h-.278v-.278h-.278v-.278h-.557v-.278h-.278v-.278h.278v.278h.557v.278h.278v.278h.278v-.278h.278v.278h.278v.278h.557v.278h-.557v.278h.278v.557h.278v.278h.278v-.557h-.278v-.278h.278v.278h.278v.278h.278v.557h-.278v-.278h-.278v.557h.278v.278h.278v-.278h.278v.278h.278v.278h.278v.278h-.278v-.278h-.278v-.278h-.278v.557h.278v.557h.278v-.278h.278v.278h.278v.278h-.278v-.278h-.278v.557h.278v.835h.278v.557h.278v-.557h.278v.557h-.278v.835h.278v.557h-.278v-.278h-.278v-1.114h-.278v-.557h-.278v1.114h.278v.835h.278v1.114h.278v.835h.278v-1.392h-.278ZM65.671,39.573h-.278v-.278h.278v.278ZM67.342,39.852h-.278v-.278h.278v.278ZM71.519,47.928h.278v.278h-.278v-.278ZM72.354,50.991v.835h-.278v-.835h.278ZM72.076,50.156h-.278v-.557h.278v.557ZM72.076,49.32h-.278v-.278h.278v.278ZM71.519,48.763v-.278h.278v.278h-.278ZM71.797,50.713v-.278h.278v.278h-.278ZM72.076,52.383v-.278h.278v.278h-.278ZM72.633,54.611h-.278v-.278h.278v.278ZM74.025,53.219v-.278h.557v.557h-.278v-.278h-.278ZM73.747,51.826v-.278h.557v.278h-.557ZM74.861,54.333h-.557v-.278h.278v-.278h.278v-.557h.557v.557h-.557v.557ZM75.696,54.611h-.278v-.278h-.278v-.278h.278v.278h.278v.278ZM76.253,53.219h-.278v.278h-.278v-.557h.557v.278ZM77.924,55.168h-.278v-.278h.278v.278ZM77.924,54.611h-.278v-.278h.278v.278ZM77.924,53.776h-.278v-.278h.278v.278ZM77.924,53.219h-.278v-.278h.278v.278ZM77.924,52.662h-.278v-.278h.278v.278ZM77.924,52.105h-.278v-.557h.278v.557ZM78.203,50.991h-.278v-.557h.278v.557ZM78.203,50.156h-.278v-.557h.278v.557ZM78.481,49.32h-.278v-.557h.278v.557ZM78.759,48.206h-.278v.278h-.278v-.278h.278v-.557h.278v.557ZM78.759,47.371h-.278v-.278h.278v.278ZM79.038,46.814h-.278v-.278h.278v.278ZM82.101,40.687h-.278v-.278h.278v.278ZM79.316,34.004h.278v.278h-.278v-.278ZM77.924,31.776h.278v.278h.278v.278h-.278v-.278h-.278v-.278ZM76.532,28.713h.278v.557h-.278v-.557ZM76.253,28.156v.278h-.278v-.278h.278ZM75.975,26.763v.278h-.278v-.278h.278ZM75.418,25.928h.278v.557h-.278v-.557ZM74.582,25.371h.278v-.557h.278v.557h-.278v.557h-.278v-.557ZM74.304,26.206h.278v.278h-.278v-.278ZM73.747,27.599h.278v-.557h.278v-.278h.278v.278h-.278v.557h-.278v.557h-.278v-.557ZM73.468,28.434h.278v.278h-.278v-.278ZM73.19,28.991h.278v.557h-.278v-.557ZM72.911,29.826h.278v.278h-.278v-.278ZM72.354,30.94h.278v-.557h.278v.557h-.278v.278h-.278v-.278ZM70.684,44.864h-.278v-.278h.278v.278ZM70.684,43.194v-.557h-.278v-.557h-.278v-.557h-.278v-.278h-.278v-.278h-.278v-.557h-.557v-.557h-.557v-.557h-.557v-.557h.278v-.557h.557v-.278h.278v-.557h.278v-.278h.557v-.278h.278v-.557h.278v-.278h.278v-.278h.278v-.278h.278v-.557h.278v-.278h.278v-.557h.278v-.278h.278v-.278h.278v-.557h.278v-.278h.278v-.557h.278v-.557h.278v-.835h.278v-.278h.278v-.557h.278v-.557h.278v-.557h.278v-.557h.278v.278h.278v.835h.278v.278h.278v.557h.278v.557h.278v.557h.278v.278h.278v.557h.278v.557h.278v.557h.278v.278h.278v.557h.278v.278h.278v.278h.278v.557h.278v.557h.278v.278h.557v.557h.278v.278h.278v.278h.278v.278h.278v.278h.278v.278h.278v.278h.278v.278h.278v.835h-.278v.278h-.278v.278h-.278v.278h-.278v.278h-.278v.278h-.278v.557h-.278v.278h-.278v.278h-.278v.557h-.278v.557h-.278v.557h-.278v.835h-.278v.835h-.278v.835h-.278v.557h-.278v1.114h-.278v1.392h-.278v1.949h-.278v3.899h-.557v-.835h.278v-.278h-.278v-1.114h.278v-.557h-.278v-.278h-.278v.278h-.557v-.557h.278v.278h.278v-.278h.557v-1.114h.278v-.278h-.278v-.278h.278v-.557h-.278v.278h-.278v.557h-.278v.278h-.557v.557h-.278v.557h-.278v.557h.278v.835h-.557v-.557h-.278v.278h-.278v-.278h.278v-.278h.278v-.557h-.278v-.557h-.278v-.557h-.557v-.557h-.557v1.671h.278v1.114h.278v.278h-.278v.278h.278v.278h-.278v.278h.278v.278h-.278v.278h.278v.278h-.278v.278h-.557v-.278h.278v-.278h-.278v-.278h.278v-.835h-.278v-.278h.278v-.278h-.278v-.278h.278v-.278h-.278v-2.228h-.278v-1.671h-.278v-1.392h-.278v-.835h-.278v-.835h-.278v-.835h-.278v-.835h-.278v-.278h-.278ZM70.962,46.257h.278v.278h-.278v-.278Z"/>
        <rect x="79.873" y="40.966" width=".278" height=".278"/>
        <polygon points="74.025 34.839 74.025 35.118 74.304 35.118 74.304 35.675 74.861 35.675 74.861 35.396 74.582 35.396 74.582 35.118 74.861 35.118 74.861 35.396 75.418 35.396 75.418 35.675 75.696 35.675 75.696 35.118 76.253 35.118 76.253 34.839 76.532 34.839 76.532 33.725 75.696 33.725 75.696 34.004 75.418 34.004 75.418 34.561 75.139 34.561 75.139 34.839 75.418 34.839 75.418 35.118 75.139 35.118 75.139 34.839 74.861 34.839 74.861 34.282 74.582 34.282 74.582 34.004 74.025 34.004 74.025 34.282 73.747 34.282 73.747 34.004 73.468 34.004 73.468 34.839 74.025 34.839"/>
        <polygon points="70.962 36.788 70.962 36.51 72.354 36.51 72.354 36.232 72.633 36.232 72.633 35.953 72.354 35.953 72.354 35.396 71.797 35.396 71.797 35.675 71.519 35.675 71.519 35.953 71.241 35.953 71.241 36.232 70.684 36.232 70.684 36.51 70.127 36.51 70.127 37.067 70.405 37.067 70.405 36.788 70.962 36.788"/>
        <rect x="77.646" y="34.839" width=".278" height=".278"/>
        <polygon points="78.759 41.523 77.646 41.523 77.646 41.244 77.089 41.244 77.089 40.966 76.532 40.966 76.532 40.687 76.253 40.687 76.253 40.409 75.975 40.409 75.975 40.13 75.696 40.13 75.696 39.852 75.418 39.852 75.418 39.573 75.139 39.573 75.139 40.409 75.418 40.409 75.418 40.687 75.139 40.687 75.139 40.966 75.418 40.966 75.418 41.801 75.696 41.801 75.696 42.08 75.975 42.08 75.975 42.358 77.089 42.358 77.089 42.915 77.367 42.915 77.367 43.194 77.089 43.194 77.089 43.472 76.81 43.472 76.81 43.75 76.532 43.75 76.532 44.029 75.975 44.029 75.975 44.307 75.696 44.307 75.696 44.029 75.418 44.029 75.418 43.75 74.582 43.75 74.582 44.029 74.304 44.029 74.304 44.307 74.025 44.307 74.025 44.029 73.468 44.029 73.468 43.75 72.911 43.75 72.911 43.472 72.633 43.472 72.633 42.915 72.354 42.915 72.354 43.472 72.076 43.472 72.076 42.915 71.797 42.915 71.797 42.637 71.519 42.637 71.519 42.358 71.241 42.358 71.241 42.08 70.962 42.08 70.962 41.801 71.241 41.801 71.241 42.08 71.797 42.08 71.797 42.637 72.076 42.637 72.076 42.915 72.354 42.915 72.354 42.08 72.633 42.08 72.633 41.244 72.354 41.244 72.354 41.523 72.076 41.523 72.076 41.244 71.797 41.244 71.797 41.523 71.519 41.523 71.519 41.244 70.684 41.244 70.684 40.966 70.405 40.966 70.405 40.687 70.127 40.687 70.127 41.244 70.405 41.244 70.405 41.523 70.684 41.523 70.684 42.358 70.962 42.358 70.962 42.637 71.241 42.637 71.241 43.194 71.519 43.194 71.519 43.472 71.797 43.472 71.797 43.75 72.076 43.75 72.076 44.029 72.354 44.029 72.354 43.75 72.633 43.75 72.633 44.029 72.354 44.029 72.354 44.307 72.633 44.307 72.633 44.586 73.19 44.586 73.19 44.864 73.747 44.864 73.747 45.143 74.025 45.143 74.025 44.864 74.304 44.864 74.304 45.143 75.418 45.143 75.418 44.864 75.696 44.864 75.696 45.143 75.975 45.143 75.975 44.864 76.81 44.864 76.81 44.586 77.367 44.586 77.367 44.307 77.924 44.307 77.924 44.029 78.203 44.029 78.203 43.472 77.924 43.472 77.924 43.194 77.646 43.194 77.646 42.358 77.367 42.358 77.367 41.801 77.089 41.801 77.089 41.523 77.367 41.523 77.367 41.801 77.646 41.801 77.646 42.08 77.924 42.08 77.924 43.194 78.203 43.194 78.203 43.472 78.759 43.472 78.759 42.915 79.038 42.915 79.038 42.637 79.316 42.637 79.316 42.08 79.038 42.08 79.038 42.358 78.759 42.358 78.759 42.637 78.481 42.637 78.481 42.915 78.203 42.915 78.203 42.637 78.481 42.637 78.481 42.08 78.759 42.08 78.759 41.801 79.038 41.801 79.038 41.523 79.873 41.523 79.873 41.244 78.759 41.244 78.759 41.523"/>
        <polygon points="70.962 49.32 70.962 49.599 70.684 49.599 70.684 49.877 70.962 49.877 70.962 50.991 71.241 50.991 71.241 49.32 70.962 49.32"/>
        <polygon points="70.962 40.966 71.797 40.966 71.797 40.687 71.241 40.687 71.241 40.409 71.519 40.409 71.519 40.13 71.241 40.13 71.241 39.573 71.797 39.573 71.797 39.016 72.354 39.016 72.354 38.738 71.797 38.738 71.797 38.459 71.519 38.459 71.519 37.902 71.241 37.902 71.241 37.345 71.797 37.345 71.797 37.067 72.076 37.067 72.076 37.345 71.797 37.345 71.797 37.624 72.076 37.624 72.076 37.902 71.797 37.902 71.797 38.181 72.076 38.181 72.076 38.459 72.633 38.459 72.633 38.738 73.747 38.738 73.747 39.016 73.19 39.016 73.19 39.295 72.633 39.295 72.633 39.016 72.354 39.016 72.354 39.295 72.076 39.295 72.076 40.13 71.797 40.13 71.797 40.409 72.076 40.409 72.076 40.966 72.633 40.966 72.633 40.687 72.911 40.687 72.911 40.409 73.468 40.409 73.468 39.852 74.025 39.852 74.025 39.573 74.304 39.573 74.304 39.016 74.861 39.016 74.861 38.738 74.582 38.738 74.582 38.459 74.304 38.459 74.304 38.181 74.025 38.181 74.025 37.902 73.747 37.902 73.747 37.624 73.468 37.624 73.468 37.345 73.19 37.345 73.19 37.067 72.911 37.067 72.911 36.788 71.241 36.788 71.241 37.067 70.405 37.067 70.405 37.345 70.127 37.345 70.127 38.181 70.405 38.181 70.405 38.459 70.127 38.459 70.127 38.181 69.848 38.181 69.848 39.852 70.127 39.852 70.127 39.016 70.405 39.016 70.405 38.738 70.962 38.738 70.962 38.459 71.241 38.459 71.241 38.738 70.962 38.738 70.962 39.295 70.405 39.295 70.405 39.852 70.127 39.852 70.127 40.13 70.405 40.13 70.405 40.687 70.962 40.687 70.962 40.966"/>
        <rect x="53.696" y="55.725" width=".557" height=".278"/>
        <polygon points="55.367 56.561 55.367 56.839 56.203 56.839 56.203 57.118 57.038 57.118 57.038 56.839 56.481 56.839 56.481 56.561 55.646 56.561 55.646 56.282 54.81 56.282 54.81 56.561 55.367 56.561"/>
        <rect x="54.253" y="56.004" width=".557" height=".278"/>
        <rect x="53.139" y="55.447" width=".557" height=".278"/>
        <rect x="49.797" y="53.219" width=".278" height=".278"/>
        <rect x="49.241" y="52.94" width=".278" height=".278"/>
        <rect x="52.861" y="55.168" width=".278" height=".278"/>
        <rect x="58.987" y="57.675" width="1.392" height=".278"/>
        <polygon points="57.873 57.396 57.873 57.675 58.987 57.675 58.987 57.396 58.152 57.396 58.152 57.118 57.038 57.118 57.038 57.396 57.873 57.396"/>
        <polygon points="69.57 57.675 69.848 57.675 69.848 57.396 70.127 57.396 70.127 57.118 70.405 57.118 70.405 56.839 70.684 56.839 70.684 56.561 70.127 56.561 70.127 56.839 69.848 56.839 69.848 57.118 69.57 57.118 69.57 57.396 69.291 57.396 69.291 57.953 69.57 57.953 69.57 57.675"/>
        <rect x="70.684" y="56.282" width=".278" height=".278"/>
        <rect x="69.013" y="57.953" width=".278" height=".278"/>
        <polygon points="71.519 56.004 71.797 56.004 71.797 55.725 71.519 55.725 71.519 54.611 71.797 54.611 71.797 54.333 71.519 54.333 71.519 50.991 71.241 50.991 71.241 51.269 70.962 51.269 70.962 51.548 71.241 51.548 71.241 56.004 70.962 56.004 70.962 56.282 71.519 56.282 71.519 56.004"/>
        <polygon points="61.494 58.232 61.494 58.51 62.051 58.51 62.051 58.232 62.329 58.232 62.329 57.953 60.38 57.953 60.38 58.232 61.494 58.232"/>
      </g>
    </g>
  </g>
</svg>